<svg width="70" height="70" fill="none" xmlns="http://www.w3.org/2000/svg"><g clip-path="url(#a)"><mask id="b" style="mask-type:luminance" maskUnits="userSpaceOnUse" x="0" y="0" width="70" height="70"><path d="M70 0H0v70h70V0Z" fill="#fff"/></mask><g mask="url(#b)"><path d="M46.35 6.206a5.133 5.133 0 0 1 5.234 1.259l4.025 4.025-6.05 6.051a6.16 6.16 0 0 0-7.001 1.2 6.162 6.162 0 0 0 0 8.702 6.137 6.137 0 0 0 4.35 1.798c1.575 0 3.152-.6 4.35-1.798a6.164 6.164 0 0 0 1.203-7.003l6.05-6.05 4.024 4.026a5.141 5.141 0 0 1 1.26 5.236l-3.84 11.872a9.61 9.61 0 0 1-2.34 3.824L27.562 69.4a2.05 2.05 0 0 1-2.899 0L.601 45.338a2.055 2.055 0 0 1 0-2.9l30.051-30.052a9.61 9.61 0 0 1 3.825-2.34l11.873-3.84ZM27.89 28.164a1.094 1.094 0 0 0-1.093 1.094v2.411a6.251 6.251 0 0 1-1.842 4.447l-.799.798h-6.11a1.094 1.094 0 0 0-1.093 1.094v12.031a1.095 1.095 0 0 0 1.094 1.094h19.14a2.735 2.735 0 0 0 2.557-3.706 2.735 2.735 0 0 0 1.094-3.281 2.734 2.734 0 0 0 1.094-3.282 2.735 2.735 0 0 0-1.463-5.043h-6.016a1.096 1.096 0 0 1-1.094-1.094v-3.281a3.287 3.287 0 0 0-3.28-3.282H27.89Zm-4.374 20.782H19.14v-9.844h4.375v9.844Zm6.562-18.594a1.095 1.095 0 0 1 1.094 1.093v3.282a3.286 3.286 0 0 0 3.281 3.281h6.016a.547.547 0 0 1 0 1.094h-1.094a1.094 1.094 0 0 0 0 2.187.546.546 0 1 1 0 1.094h-1.094a1.094 1.094 0 0 0 0 2.188.547.547 0 0 1 0 1.093h-1.093a1.094 1.094 0 0 0 0 2.188.547.547 0 0 1 0 1.094H25.703V38.46l.799-.798a8.425 8.425 0 0 0 2.482-5.994v-1.317h1.094Zm15.379-8.711a2.057 2.057 0 0 1 2.902 0 2.053 2.053 0 0 1-2.902 2.902 2.058 2.058 0 0 1 0-2.902ZM66.499.6c.801-.8 2.1-.8 2.901 0 .8.8.8 2.1 0 2.901l-10.89 10.89-2.9-2.9L66.498.6Z" fill="url(#c)"/></g></g><defs><linearGradient id="c" x1="0" y1="74.667" x2="74.054" y2="70.077" gradientUnits="userSpaceOnUse"><stop stop-color="#1A759F"/><stop offset="1" stop-color="#34A0A4"/></linearGradient><clipPath id="a"><path fill="#fff" d="M0 0h70v70H0z"/></clipPath></defs></svg>