<svg width="70" height="70" fill="none" xmlns="http://www.w3.org/2000/svg"><g clip-path="url(#a)"><mask id="b" style="mask-type:luminance" maskUnits="userSpaceOnUse" x="0" y="0" width="70" height="70"><path d="M70 0H0v70h70V0Z" fill="#fff"/></mask><g mask="url(#b)"><path d="M69.957 53.64 64.002 70l-4.674-1.701 5.954-16.36 4.675 1.702Zm-7.862-.22-4.253 11.69-1.17-.424a1.232 1.232 0 0 0-.822-.01l-7.131 2.408-25.127-9.146a2.627 2.627 0 0 1-1.786-2.747H21.8a2.495 2.495 0 0 1 3.315-1.99l8.069 2.937c.004.229.022.458.055.684a4.984 4.984 0 0 0 5.764 4.035l14.005-2.471-.433-2.45-13.999 2.47a2.495 2.495 0 0 1-2.88-2.01 2.297 2.297 0 0 1 .005-.856c.01-.041.017-.082.022-.124.017-.106.046-.21.086-.31a2.504 2.504 0 0 1 1.906-1.602l16.57-2.926 7.809 2.843ZM33.179 0a6.177 6.177 0 0 1 4.395 1.821l10.117 10.117a2.411 2.411 0 0 1 .445 2.96 2.363 2.363 0 0 1-3.527.39l-4.669-4.669a4.962 4.962 0 0 0-4.915-4.401H23.833v2.487h11.192a2.487 2.487 0 0 1 0 4.975H26.32c-.686 0-1.244.556-1.244 1.243 0 1.883-3.08 3.73-6.218 3.73-3.137 0-6.217-1.847-6.217-3.73 0-.687-.557-1.243-1.243-1.243h-1.245V3.73h1.245c.168.001.335-.033.49-.1L20.35 0h12.828ZM7.666 17.41H.206V0h7.46v17.41Z" fill="url(#c)"/><path d="M47.967 28.436a.675.675 0 0 0 .674-.674V26.73a.675.675 0 0 0-1.35 0v1.032a.675.675 0 0 0 .676.674Zm1.256 1.331h1.031a.674.674 0 1 0 0-1.349h-1.031a.675.675 0 0 0 0 1.35Zm-1.332-.092a.675.675 0 0 0-.675.674v1.032a.675.675 0 0 0 1.35 0v-1.032a.675.675 0 0 0-.675-.674Zm-2.288.017h1.032a.675.675 0 0 0 0-1.349h-1.032a.675.675 0 0 0 0 1.35Z" fill="url(#d)"/><path d="M49.338 17.056H26.042a3.618 3.618 0 0 0-2.538 1.039 3.526 3.526 0 0 0-1.052 2.505v5.721c0-.01.003-.018.004-.027-.27 2.398-1.527 3.64-3.957 3.906a.643.643 0 0 0-.407.206.628.628 0 0 0 0 .844c.105.116.25.19.407.206 2.43.267 3.687 1.508 3.957 3.907 0-.01-.003-.018-.004-.027V46.51c0 .94.38 1.84 1.052 2.505a3.618 3.618 0 0 0 2.538 1.04h23.296a3.618 3.618 0 0 0 2.538-1.04 3.526 3.526 0 0 0 1.053-2.505V20.6a3.526 3.526 0 0 0-1.053-2.506 3.618 3.618 0 0 0-2.538-1.04ZM23.732 20.6c0-.604.244-1.184.678-1.612a2.327 2.327 0 0 1 1.632-.668h23.296c.613 0 1.2.241 1.633.668.433.428.676 1.008.677 1.612v2.92H23.732V20.6Zm-2.817 10.228a4.748 4.748 0 0 0 2.177-2.15 4.754 4.754 0 0 0 2.179 2.152 4.75 4.75 0 0 0-2.179 2.148 4.748 4.748 0 0 0-2.179-2.15h.002Zm30.734 15.683c0 .605-.244 1.185-.677 1.612a2.327 2.327 0 0 1-1.633.669H26.042c-.612 0-1.2-.241-1.633-.669a2.268 2.268 0 0 1-.677-1.611V35.335c.277-2.38 1.534-3.613 3.952-3.88a.643.643 0 0 0 .407-.206.627.627 0 0 0 0-.844.643.643 0 0 0-.407-.206c-2.42-.266-3.676-1.5-3.952-3.879v-1.536h27.916l.001 21.726Z" fill="url(#e)"/><path d="M37.5 47a9.166 9.166 0 0 0 5.278-1.685 9.908 9.908 0 0 0 3.499-4.488 10.49 10.49 0 0 0 .54-5.778 10.174 10.174 0 0 0-2.6-5.12 9.363 9.363 0 0 0-4.864-2.737 9.06 9.06 0 0 0-5.489.57 9.623 9.623 0 0 0-4.263 3.682A10.379 10.379 0 0 0 28 37c.003 2.651 1.005 5.193 2.786 7.068 1.78 1.874 4.195 2.929 6.714 2.932Zm0-18.708c1.636 0 3.235.51 4.596 1.467a8.628 8.628 0 0 1 3.047 3.908 9.135 9.135 0 0 1 .47 5.031 8.859 8.859 0 0 1-2.264 4.459 8.152 8.152 0 0 1-4.235 2.383 7.888 7.888 0 0 1-4.78-.495 8.38 8.38 0 0 1-3.712-3.207A9.037 9.037 0 0 1 29.228 37c.002-2.309.874-4.522 2.425-6.155 1.551-1.632 3.654-2.55 5.847-2.553Z" fill="url(#f)"/><path d="M30.588 38.673c0 .006 0 .011.002.016a7.339 7.339 0 0 0 .156.466 7.053 7.053 0 0 0 .33.765c.065.129.131.257.204.382.03.051.061.1.092.15.282.462.614.892.992 1.282l.008.01c.121.123.247.24.376.356l.077.069c.128.111.26.218.397.32.024.02.049.036.074.055.143.106.29.208.44.303l.006.003a7.41 7.41 0 0 0 1.489.718c.045.016.09.035.135.048a13.06 13.06 0 0 0 .665.186 7.262 7.262 0 0 0 .724.13c.09.01.178.024.269.033.226.02.454.035.684.035a7.464 7.464 0 0 0 5.236-2.144 7.272 7.272 0 0 0 2.171-5.168 7.09 7.09 0 0 0-.056-.86 7.084 7.084 0 0 0-.074-.476c-.011-.063-.02-.125-.035-.187a7.126 7.126 0 0 0-.152-.581c-.025-.08-.053-.157-.08-.235a7.14 7.14 0 0 0-.243-.617 7.464 7.464 0 0 0-.168-.345 7.844 7.844 0 0 0-.38-.662c-.004-.005-.01-.008-.013-.013a7.388 7.388 0 0 0-4.127-3.047 7.484 7.484 0 0 0-5.14.354 7.35 7.35 0 0 0-3.66 3.583 7.214 7.214 0 0 0-.4 5.072Zm7.12 4.087a6.364 6.364 0 0 1-1.088-.1c-.078-.014-.155-.027-.232-.044-.095-.02-.188-.047-.281-.07a6.284 6.284 0 0 1-.506-.16c-.045-.016-.09-.03-.134-.048a6.047 6.047 0 0 1-.429-.187 6.22 6.22 0 0 1-1.061-.645l-.027-.02a6.108 6.108 0 0 1-.312-.256l-.055-.049a6.141 6.141 0 0 1-.803-.874c-.025-.033-.051-.066-.075-.1a6.37 6.37 0 0 1-.646-1.124c4.88-.408 6.948-2.11 8.784-3.62a11.93 11.93 0 0 1 2.302-1.616 6.07 6.07 0 0 1 .567 1.523 5.98 5.98 0 0 1 .11.648l.012.118a6.1 6.1 0 0 1 .028.55 6.042 6.042 0 0 1-1.804 4.293 6.202 6.202 0 0 1-4.35 1.781Zm0-12.15c.906 0 1.8.198 2.62.579a6.13 6.13 0 0 1 2.119 1.625 13.656 13.656 0 0 0-2.406 1.7c-1.724 1.418-3.678 3.015-8.367 3.353a5.992 5.992 0 0 1 .064-2.66 6.039 6.039 0 0 1 1.213-2.379 6.138 6.138 0 0 1 2.126-1.637 6.212 6.212 0 0 1 2.631-.58ZM47.803 19c-.435 0-.86.127-1.221.366a2.175 2.175 0 0 0-.81.973 2.143 2.143 0 0 0 .477 2.364 2.224 2.224 0 0 0 2.395.47c.401-.164.744-.442.986-.799a2.15 2.15 0 0 0-.274-2.738A2.214 2.214 0 0 0 47.803 19Zm0 3.102a.954.954 0 0 1-.525-.157.922.922 0 0 1-.143-1.435.95.95 0 0 1 1.03-.203c.172.07.32.19.423.344a.924.924 0 0 1-.117 1.177.953.953 0 0 1-.668.274ZM27.198 19c-.435 0-.86.127-1.221.365a2.176 2.176 0 0 0-.81.974 2.143 2.143 0 0 0 .476 2.364 2.224 2.224 0 0 0 2.395.47 2.19 2.19 0 0 0 .987-.799 2.15 2.15 0 0 0-.274-2.738A2.214 2.214 0 0 0 27.198 19Zm0 3.102a.954.954 0 0 1-.525-.157.935.935 0 0 1-.402-.958.93.93 0 0 1 .258-.478.95.95 0 0 1 1.03-.202c.173.07.32.19.424.344a.924.924 0 0 1-.117 1.177.952.952 0 0 1-.668.274ZM32.138 19c-.435 0-.86.127-1.221.366a2.175 2.175 0 0 0-.81.973 2.144 2.144 0 0 0 .477 2.364 2.224 2.224 0 0 0 2.395.47 2.19 2.19 0 0 0 .986-.799 2.149 2.149 0 0 0-.274-2.738A2.215 2.215 0 0 0 32.138 19Zm0 3.102a.954.954 0 0 1-.525-.157.923.923 0 0 1-.143-1.435.949.949 0 0 1 1.03-.203c.172.07.32.19.423.344a.925.925 0 0 1-.117 1.177.952.952 0 0 1-.668.274Zm11.128-2.59H39.47c-.374 0-.734.146-.999.407a1.385 1.385 0 0 0 0 1.972c.265.262.625.409.999.409h3.796c.374 0 .733-.147.998-.409a1.386 1.386 0 0 0 0-1.971 1.422 1.422 0 0 0-.998-.409Zm0 1.551H39.47a.16.16 0 0 1-.113-.046.157.157 0 0 1 .113-.27h3.796a.16.16 0 0 1 .113.047.157.157 0 0 1 0 .223.16.16 0 0 1-.113.046Z" fill="url(#g)"/></g></g><defs><linearGradient id="c" x1=".205" y1="74.667" x2="73.999" y2="70.109" gradientUnits="userSpaceOnUse"><stop stop-color="#FF6F00"/><stop offset="1" stop-color="#FFC180"/></linearGradient><linearGradient id="d" x1="47.929" y1="26.056" x2="47.929" y2="32.056" gradientUnits="userSpaceOnUse"><stop stop-color="#FF6F00"/><stop offset="1" stop-color="#FFC180"/></linearGradient><linearGradient id="e" x1="35.429" y1="17.056" x2="35.429" y2="50.056" gradientUnits="userSpaceOnUse"><stop stop-color="#FF6F00"/><stop offset="1" stop-color="#FFC180"/></linearGradient><linearGradient id="f" x1="37.5" y1="27" x2="37.5" y2="47" gradientUnits="userSpaceOnUse"><stop stop-color="#FF6F00"/><stop offset="1" stop-color="#FFC180"/></linearGradient><linearGradient id="g" x1="37.5" y1="19" x2="37.5" y2="44" gradientUnits="userSpaceOnUse"><stop stop-color="#FF6F00"/><stop offset="1" stop-color="#FFC180"/></linearGradient><clipPath id="a"><path fill="#fff" d="M0 0h70v70H0z"/></clipPath></defs></svg>