<svg width="70" height="70" fill="none" xmlns="http://www.w3.org/2000/svg"><path d="M20.584 67.022h-7.881a3.32 3.32 0 0 1-3.315-3.316V42.311h11.196v24.71Zm26.001-3.316a3.32 3.32 0 0 1-3.314 3.316H32.653v-24.71h13.932v21.394ZM31.011 67.02h-8.786V42.313h8.786V67.02ZM17.82 34.593 4.677 42.948 2.022 38.77a3.32 3.32 0 0 1 1.019-4.576l10.344-6.577 4.435 6.975Zm16.75 2.221a1.478 1.478 0 1 1 0 2.956 1.478 1.478 0 0 1 0-2.956Zm16.66-6.84a.82.82 0 0 1 .44.093l2.055 1.08 2.055-1.08a.823.823 0 0 1 .864.063.82.82 0 0 1 .326.802l-.392 2.288 1.662 1.62a.82.82 0 0 1-.455 1.4l-2.297.333-1.028 2.081a.82.82 0 0 1-1.47 0l-1.028-2.08-2.297-.335a.821.821 0 0 1-.455-1.4l1.663-1.62-.393-2.287a.821.821 0 0 1 .75-.957Zm-12.164 3.364c1.7-1.07 4.562-2.14 8.536-1.156a.821.821 0 1 1-.393 1.592c-6.459-1.597-9.428 2.886-9.552 3.08a.82.82 0 0 1-1.386-.878c.038-.06.944-1.473 2.795-2.638Zm25.52-.96a1.478 1.478 0 1 1 0 2.955 1.478 1.478 0 0 1 0-2.955ZM26.69 28.951l-7.486 4.76-4.435-6.974 3.632-2.31a.729.729 0 0 0 .058-.036l3.796-2.414 4.435 6.974Zm5.799 1.02a1.478 1.478 0 1 1 0 2.956 1.478 1.478 0 0 1 0-2.955Zm10.155-5.496c2.532-1.95 6.777-3.765 12.617-1.341a.821.821 0 0 1-.629 1.515c-4.106-1.704-7.803-1.326-10.987 1.125a13.838 13.838 0 0 0-3.614 4.25.823.823 0 0 1-1.358.178.82.82 0 0 1-.112-.908 15.384 15.384 0 0 1 4.083-4.82ZM7.086 22.93a3.055 3.055 0 0 1 2.3-.405l6.628 1.476-2.664 1.693a.827.827 0 0 0-.16.078l-4.534 2.842-.597-.133a3.05 3.05 0 0 1-.973-5.551Zm28.45-8.788a3.344 3.344 0 0 1 1.91.6c.357.25.66.569.892.937l2.657 4.177-12.92 8.215-4.435-6.974 10.123-6.437a3.294 3.294 0 0 1 1.773-.518Zm26.704 4.533a.822.822 0 0 1 .69.524l.826 2.17 2.256.547a.821.821 0 0 1 .322 1.436l-1.807 1.457.176 2.314a.822.822 0 0 1-1.266.75l-1.944-1.27-2.147.883a.822.822 0 0 1-1.104-.972l.604-2.241-1.502-1.77a.822.822 0 0 1 .157-1.205.82.82 0 0 1 .427-.145l2.319-.117 1.217-1.976a.821.821 0 0 1 .776-.385ZM22.618 10.81a3.052 3.052 0 0 1 2.3-.403 3.06 3.06 0 0 1 2.313 3.652l-.674 3.221-4.5 2.854a.82.82 0 0 0-.138.113l-2.699 1.716 2.057-9.24a3.052 3.052 0 0 1 1.34-1.913Zm33.753 1.673a.82.82 0 0 1 .972.957c-.494 2.6-1.686 4.477-3.546 5.579-1.42.841-3.005 1.09-4.377 1.09a12.3 12.3 0 0 1-3.478-.504.82.82 0 0 1 .505-1.561c.066.02 3.8 1.178 6.521-.44 1.432-.852 2.361-2.356 2.763-4.47a.821.821 0 0 1 .64-.65Zm10.647-.638a1.478 1.478 0 1 1 0 2.955 1.478 1.478 0 0 1 0-2.955Zm-20.823-1.828a1.477 1.477 0 1 1 0 2.954 1.477 1.477 0 0 1 0-2.954ZM57.34 2.982a.822.822 0 0 1 .69.525l.827 2.169 2.256.548a.822.822 0 0 1 .321 1.435l-1.807 1.457.176 2.316a.821.821 0 0 1-1.266.749l-1.945-1.269-2.146.883a.821.821 0 0 1-1.104-.974l.606-2.24-1.503-1.77a.82.82 0 0 1 .584-1.35l2.318-.116 1.218-1.976a.824.824 0 0 1 .775-.387Z" fill="url(#a)"/><defs><linearGradient id="a" x1="1.505" y1="71.291" x2="72.35" y2="66.697" gradientUnits="userSpaceOnUse"><stop stop-color="#4481EB"/><stop offset="1" stop-color="#04BEFE"/></linearGradient></defs></svg>