<svg width="70" height="70" fill="none" xmlns="http://www.w3.org/2000/svg"><path d="M20.585 67.022h-7.882a3.32 3.32 0 0 1-3.315-3.316V42.312h11.197v24.71Zm26-3.316a3.32 3.32 0 0 1-3.314 3.316H32.653v-24.71h13.933v21.394Zm-15.574 3.315h-8.786V42.31h8.786v24.71ZM17.82 34.592 4.677 42.948l-2.655-4.177a3.32 3.32 0 0 1 1.019-4.577l10.344-6.577 4.435 6.975Zm16.75 2.222a1.478 1.478 0 1 1 0 2.955 1.478 1.478 0 0 1 0-2.955Zm16.66-6.84a.82.82 0 0 1 .44.093l2.055 1.08 2.055-1.08a.823.823 0 0 1 .864.062.82.82 0 0 1 .326.802l-.392 2.288 1.662 1.62a.82.82 0 0 1-.455 1.4l-2.297.334-1.027 2.08a.82.82 0 0 1-1.471 0l-1.028-2.08-2.296-.334a.821.821 0 0 1-.455-1.4l1.662-1.62-.393-2.288a.821.821 0 0 1 .75-.957Zm-12.164 3.363c1.7-1.07 4.562-2.14 8.536-1.156a.821.821 0 1 1-.393 1.593c-6.459-1.598-9.428 2.885-9.552 3.079a.82.82 0 0 1-1.386-.878c.038-.06.944-1.472 2.795-2.638Zm25.52-.96a1.478 1.478 0 1 1 0 2.956 1.478 1.478 0 0 1 0-2.956ZM26.69 28.951l-7.486 4.761-4.435-6.975 3.632-2.31a.729.729 0 0 0 .059-.036l3.796-2.414 4.434 6.974Zm5.799 1.02a1.478 1.478 0 1 1 0 2.956 1.478 1.478 0 0 1 0-2.955Zm10.155-5.496c2.532-1.95 6.778-3.765 12.617-1.341a.821.821 0 0 1-.629 1.516c-4.106-1.705-7.803-1.326-10.987 1.125a13.838 13.838 0 0 0-3.614 4.249.823.823 0 0 1-1.358.178.82.82 0 0 1-.112-.908 15.384 15.384 0 0 1 4.083-4.82ZM7.087 22.93a3.055 3.055 0 0 1 2.298-.404L16.015 24l-2.665 1.694a.827.827 0 0 0-.16.077l-4.534 2.843-.597-.133a3.05 3.05 0 0 1-.972-5.552Zm28.449-8.788a3.344 3.344 0 0 1 1.91.6c.357.25.66.569.893.937l2.656 4.178-12.92 8.215-4.435-6.975 10.123-6.437a3.294 3.294 0 0 1 1.773-.518Zm26.704 4.533a.822.822 0 0 1 .69.524l.826 2.17 2.256.547a.821.821 0 0 1 .322 1.436l-1.807 1.457.176 2.314a.822.822 0 0 1-1.266.75l-1.944-1.27-2.147.883a.822.822 0 0 1-1.104-.972l.604-2.241-1.502-1.77a.822.822 0 0 1 .158-1.205.82.82 0 0 1 .426-.144l2.319-.118 1.218-1.975a.821.821 0 0 1 .775-.386Zm-39.622-7.864a3.052 3.052 0 0 1 2.3-.404 3.06 3.06 0 0 1 2.313 3.652l-.674 3.222-4.5 2.853a.82.82 0 0 0-.138.113l-2.699 1.716 2.057-9.24a3.052 3.052 0 0 1 1.34-1.912Zm33.753 1.673a.82.82 0 0 1 .972.957c-.494 2.599-1.686 4.476-3.546 5.578-1.42.842-3.005 1.09-4.377 1.09a12.334 12.334 0 0 1-3.478-.503.82.82 0 0 1 .505-1.562c.066.021 3.8 1.178 6.521-.44 1.432-.852 2.361-2.356 2.763-4.47a.821.821 0 0 1 .64-.65Zm10.647-.64a1.478 1.478 0 1 1 0 2.956 1.478 1.478 0 0 1 0-2.955Zm-20.823-1.827a1.477 1.477 0 1 1 0 2.955 1.477 1.477 0 0 1 0-2.955ZM57.34 2.983a.822.822 0 0 1 .69.524l.827 2.169 2.256.548a.822.822 0 0 1 .321 1.435L59.63 9.116l.175 2.316a.821.821 0 0 1-1.266.749l-1.945-1.269-2.146.883a.821.821 0 0 1-1.104-.973l.606-2.24-1.503-1.77a.82.82 0 0 1 .584-1.35l2.318-.117 1.218-1.976a.824.824 0 0 1 .775-.386Z" fill="url(#a)"/><defs><linearGradient id="a" x1="1.505" y1="71.291" x2="72.35" y2="66.698" gradientUnits="userSpaceOnUse"><stop stop-color="#43A047"/><stop offset="1" stop-color="#A5D6A7"/></linearGradient></defs></svg>