<svg width="40" height="40" fill="none" xmlns="http://www.w3.org/2000/svg"><g clip-path="url(#a)"><mask id="b" style="mask-type:luminance" maskUnits="userSpaceOnUse" x="0" y="0" width="40" height="41"><path d="M40 .002H0v40h40v-40Z" fill="#fff"/></mask><g mask="url(#b)"><path d="M29.888 24.922v3a2 2 0 0 1-2.18 2 19.791 19.791 0 0 1-8.63-3.07 19.502 19.502 0 0 1-6-6 19.791 19.791 0 0 1-3.07-8.67 2 2 0 0 1 1.99-2.18h3a2 2 0 0 1 2 1.72c.127.96.362 1.903.7 2.81a1.999 1.999 0 0 1-.45 2.11l-1.27 1.27a16 16 0 0 0 6 6l1.27-1.27a2 2 0 0 1 2.11-.45c.907.339 1.85.573 2.81.7a2 2 0 0 1 1.72 2.03Z" stroke="#2E7D32" stroke-width="2" stroke-linecap="round" stroke-linejoin="round"/></g></g><defs><clipPath id="a"><path fill="#fff" d="M0 0h40v40H0z"/></clipPath></defs></svg>