<svg width="70" height="70" fill="none" xmlns="http://www.w3.org/2000/svg"><path d="m17.88 47.273 3.806 6.174 7.203-.869 4.648 2.967L28.912 70l-7.86-6.281-10.044.553 5.58-17.44 1.293.44ZM58.994 64.27l-10.046-.552L41.087 70l-4.624-14.455 4.648-2.967 7.203.87 3.805-6.175 1.294-.442 5.58 17.44ZM40.143 3.283l6.055-.73L49.4 7.746l5.777 1.97.64 6.067 4.346 4.278-2.066 5.744 2.066 5.743-4.347 4.278-.64 6.068-5.776 1.97-3.2 5.194-6.055-.73L35 51.608l-5.143-3.282-6.054.73-3.201-5.194-5.777-1.97-.64-6.067-4.346-4.278 2.066-5.743L9.84 20.06l4.346-4.278.64-6.067 5.777-1.97 3.2-5.194 6.055.73L35 0l5.144 3.282ZM35 8.11c-9.757 0-17.695 7.939-17.695 17.696C17.305 35.562 25.243 43.5 35 43.5c9.757 0 17.695-7.938 17.695-17.695 0-9.758-7.938-17.696-17.695-17.696Zm0 4.105c7.494 0 13.592 6.097 13.592 13.59 0 7.495-6.098 13.593-13.592 13.593-7.494 0-13.59-6.098-13.59-13.592 0-7.494 6.096-13.59 13.59-13.591Zm.055 5.697a1.299 1.299 0 0 0-1.234.896l-1.223 3.761h-3.956a1.299 1.299 0 0 0-1.234 1.698c.085.26.25.487.47.648l3.202 2.325-1.223 3.762a1.298 1.298 0 0 0 1.998 1.45l3.2-2.325 3.2 2.325a1.299 1.299 0 0 0 1.998-1.45l-1.224-3.762 3.201-2.325a1.3 1.3 0 0 0 .472-1.45 1.298 1.298 0 0 0-1.234-.896h-3.956l-1.223-3.761a1.3 1.3 0 0 0-1.234-.896Z" fill="url(#a)"/><defs><linearGradient id="a" x1="9.839" y1="74.667" x2="63.175" y2="72.29" gradientUnits="userSpaceOnUse"><stop stop-color="#43A047"/><stop offset="1" stop-color="#A5D6A7"/></linearGradient></defs></svg>