<svg width="70" height="70" fill="none" xmlns="http://www.w3.org/2000/svg"><g clip-path="url(#a)"><mask id="b" style="mask-type:luminance" maskUnits="userSpaceOnUse" x="0" y="0" width="70" height="70"><path d="M70 0H0v70h70V0Z" fill="#fff"/></mask><g mask="url(#b)"><path d="M33.718 0a20.245 20.245 0 0 0-9.293 9.799h-3.462v5.919h1.86a20.382 20.382 0 0 0 .032 4.807h-1.892v5.92h3.592a20.21 20.21 0 0 0 4.02 5.765v4.96h4.1v-1.785c1.705 1 3.57 1.756 5.546 2.221V70H26.796V53.685H11.622V70H0V0h33.718ZM22.695 70h-6.971V57.787h6.971V70ZM54.33 41.016l4.186 4.101V70h-16.74V38.145c2.18 0 5.665-.479 7.648-1.71l4.906 4.58Zm-6.137 24.188h4.102v-5.919h-4.102v5.92Zm0-10.726h4.102v-5.92h-4.102v5.92Zm-42.45-6.581h4.1v-5.92h-4.1v5.92Zm7.61 0h4.102v-5.92h-4.101v5.92Zm7.61 0h4.101v-5.92h-4.101v5.92Zm7.611 0h4.102v-5.92h-4.102v5.92ZM68.583 37.03A4.806 4.806 0 0 1 70 40.451a4.807 4.807 0 0 1-1.417 3.422 4.806 4.806 0 0 1-3.42 1.417 4.808 4.808 0 0 1-3.423-1.417l-8.557-8.558a20.47 20.47 0 0 0 6.84-6.844l8.56 8.56Zm-62.84.14h4.1v-5.919h-4.1v5.92Zm7.61 0h4.102v-5.919h-4.101v5.92Zm7.61 0h4.101v-5.919h-4.101v5.92ZM42.86.274C52.64.273 60.566 8.2 60.566 17.98c0 9.778-7.926 17.705-17.705 17.705-9.778 0-17.705-7.927-17.705-17.705C25.156 8.2 33.083.273 42.861.273Zm0 2.735c-8.268 0-14.97 6.702-14.97 14.97 0 8.269 6.702 14.971 14.97 14.971s14.971-6.702 14.971-14.97c0-8.269-6.703-14.971-14.97-14.971Zm0 2.187c7.06 0 12.784 5.723 12.784 12.784 0 7.06-5.724 12.783-12.784 12.783-7.06 0-12.783-5.724-12.783-12.784 0-7.06 5.723-12.783 12.783-12.783ZM5.742 26.445h4.102v-5.92H5.742v5.92Zm7.612 0h4.101v-5.92h-4.101v5.92Zm25.336-2.762v1.279h-.927v.927H47.96v-.927h-.927v-1.28l-4.172-1.564-4.171 1.565Zm4.635-8.069a2.326 2.326 0 0 1-.928 0v5.688l.464-.174.464.174v-5.688Zm-8.374 2.364c0 1.3 1.425 2.318 3.244 2.318 1.82 0 3.245-1.018 3.245-2.317v-.464h-6.49v.463Zm9.332 0c0 1.3 1.425 2.318 3.244 2.318 1.82 0 3.245-1.018 3.245-2.317v-.464h-6.489v.463Zm-9.332-4.171h2.56l-1.113 2.78h.998l.8-1.995.798 1.996h.998l-1.112-2.781h1.68a2.308 2.308 0 0 1 0-.927h-5.61v.927Zm10.212-.927a2.317 2.317 0 0 1 0 .927h1.68l-1.113 2.78h.998l.8-1.995.798 1.996h.998l-1.112-2.781h2.56v-.927h-5.609Zm-39.42 2.838h4.1v-5.92h-4.1v5.92Zm7.61 0h4.102v-5.92h-4.101v5.92Zm29.044-3.68a1.389 1.389 0 0 0-.926 1.306c0 .766.624 1.39 1.39 1.39.767 0 1.39-.624 1.391-1.39a1.39 1.39 0 0 0-.927-1.306v-1.97h-.928v1.97Z" fill="url(#c)"/></g></g><defs><linearGradient id="c" x1="0" y1="74.667" x2="74.054" y2="70.077" gradientUnits="userSpaceOnUse"><stop stop-color="#495057"/><stop offset="1" stop-color="#ADB5BD"/></linearGradient><clipPath id="a"><path fill="#fff" d="M0 0h70v70H0z"/></clipPath></defs></svg>