<svg width="70" height="70" viewBox="0 0 70 70" fill="none" xmlns="http://www.w3.org/2000/svg">
<path d="M20.5846 67.0217H12.7027C11.824 67.0207 10.9814 66.6704 10.36 66.049C9.73858 65.4276 9.38927 64.585 9.38825 63.7063L9.38728 42.3117H20.5846V67.0217ZM46.5855 63.7063C46.5845 64.5849 46.235 65.4277 45.6139 66.049C44.9926 66.6703 44.1497 67.0206 43.2711 67.0217H32.6529V42.3117H46.5855V63.7063ZM31.0113 67.0207H22.2252V42.3117H31.0113V67.0207ZM17.8199 34.592L4.67732 42.9484L2.02204 38.7707C1.55138 38.0286 1.39359 37.1295 1.58454 36.2717C1.77554 35.414 2.29966 34.6669 3.0406 34.1945L13.3854 27.6174L17.8199 34.592ZM34.5709 36.8137C35.3868 36.8137 36.0484 37.4753 36.0484 38.2912C36.0483 39.107 35.3867 39.7688 34.5709 39.7688C33.7553 39.7685 33.0945 39.1069 33.0943 38.2912C33.0943 37.4754 33.7552 36.8139 34.5709 36.8137ZM51.2301 29.9738C51.3827 29.9628 51.5351 29.9954 51.6705 30.0666L53.7252 31.1467L55.7799 30.0666C55.9154 29.9954 56.0686 29.9628 56.2213 29.9738C56.3739 29.9849 56.5204 30.0392 56.6441 30.1291C56.7679 30.2191 56.8639 30.3419 56.9215 30.4836C56.9791 30.6253 56.9962 30.7801 56.9703 30.9309L56.5777 33.219L58.2398 34.8391C58.3493 34.9458 58.4268 35.0812 58.4635 35.2297C58.5002 35.3783 58.4942 35.5343 58.4469 35.6799C58.3996 35.8254 58.3129 35.9553 58.1959 36.0539C58.0789 36.1525 57.9362 36.2165 57.7848 36.2385L55.4879 36.5725L54.4605 38.6535C54.3929 38.7907 54.2887 38.9067 54.1588 38.9875C54.0288 39.0683 53.8783 39.1115 53.7252 39.1115C53.5723 39.1115 53.4225 39.0682 53.2926 38.9875C53.1626 38.9067 53.0576 38.7908 52.9898 38.6535L51.9625 36.5725L49.6656 36.2385C49.5142 36.2165 49.3715 36.1526 49.2545 36.0539C49.1375 35.9553 49.0508 35.8255 49.0035 35.6799C48.9562 35.5343 48.9502 35.3783 48.9869 35.2297C49.0236 35.0812 49.101 34.9459 49.2105 34.8391L50.8727 33.219L50.4801 30.9309C50.4543 30.7802 50.4714 30.6252 50.5289 30.4836C50.5866 30.3418 50.6834 30.2181 50.8072 30.1281C50.931 30.0383 51.0775 29.9848 51.2301 29.9738ZM39.066 33.3371C40.7665 32.2668 43.6277 31.1975 47.6022 32.1809C47.7076 32.2059 47.8075 32.2519 47.8951 32.3156C47.9826 32.3793 48.0566 32.4596 48.1129 32.552C48.1693 32.6445 48.2068 32.7476 48.2232 32.8547C48.2397 32.9617 48.2346 33.0709 48.2086 33.176C48.1826 33.2811 48.1363 33.38 48.0719 33.467C48.0074 33.5541 47.9257 33.6283 47.8326 33.6838C47.7398 33.7391 47.6369 33.7758 47.5299 33.7912C47.4228 33.8066 47.3134 33.8005 47.2086 33.7736C40.7504 32.1761 37.7815 36.6589 37.6568 36.8527C37.5403 37.0365 37.3555 37.1665 37.1432 37.2141C36.931 37.2615 36.7087 37.2231 36.525 37.1066C36.3413 36.9901 36.2112 36.8053 36.1637 36.593C36.1162 36.3808 36.1548 36.1584 36.2711 35.9748C36.309 35.9152 37.2147 34.5026 39.066 33.3371ZM64.5855 32.3772C65.4015 32.3772 66.0631 33.0388 66.0631 33.8547C66.0629 34.6705 65.4014 35.3322 64.5855 35.3322C63.7698 35.3322 63.1082 34.6705 63.108 33.8547C63.108 33.0388 63.7697 32.3772 64.5855 32.3772ZM26.69 28.9514L19.2037 33.7121L14.7691 26.7375L18.401 24.4279C18.4209 24.4164 18.4405 24.4044 18.4596 24.3908L22.2555 21.9768L26.69 28.9514ZM32.4889 29.9719C33.3048 29.9719 33.9664 30.6335 33.9664 31.4494C33.9663 32.2653 33.3048 32.927 32.4889 32.927C31.6731 32.9268 31.0124 32.2652 31.0123 31.4494C31.0123 30.6336 31.6731 29.9721 32.4889 29.9719ZM42.6441 24.4748C45.1764 22.5253 49.4215 20.7104 55.2613 23.134C55.3608 23.1753 55.4509 23.2365 55.527 23.3127C55.603 23.3888 55.6636 23.4789 55.7047 23.5783C55.7458 23.6779 55.7673 23.785 55.7672 23.8928C55.7671 24.0003 55.7459 24.1069 55.7047 24.2063C55.6634 24.3058 55.6022 24.3967 55.526 24.4729C55.4499 24.5488 55.3597 24.6095 55.2604 24.6506C55.1608 24.6917 55.0536 24.7122 54.9459 24.7121C54.8383 24.712 54.7318 24.6908 54.6324 24.6496C50.5263 22.9449 46.8291 23.3237 43.6451 25.7746C42.1643 26.9307 40.9349 28.3768 40.0309 30.0236C39.9834 30.1209 39.9167 30.2079 39.8355 30.2795C39.7544 30.351 39.6596 30.4058 39.5572 30.4406C39.4549 30.4754 39.3467 30.4898 39.2389 30.4826C39.1309 30.4755 39.0253 30.4468 38.9283 30.3986C38.8314 30.3505 38.7444 30.284 38.6734 30.2023C38.6025 30.1207 38.5484 30.0257 38.5143 29.9231C38.4801 29.8204 38.4672 29.7116 38.4752 29.6037C38.4831 29.4958 38.5123 29.3907 38.5611 29.2941C39.5743 27.4227 40.9643 25.7813 42.6441 24.4748ZM7.0865 22.9299C7.76896 22.4961 8.59579 22.3508 9.38532 22.5256L16.0143 24.0012L13.3502 25.6945C13.2943 25.7144 13.2403 25.7403 13.19 25.7717L8.65583 28.6145L8.05915 28.4816C7.26958 28.3058 6.58212 27.8234 6.14802 27.1408C5.71399 26.4582 5.56903 25.6307 5.7447 24.841C5.9214 24.0517 6.40392 23.3638 7.0865 22.9299ZM35.5357 14.1418C35.7801 14.142 36.0238 14.1686 36.2623 14.2219C36.6875 14.3154 37.0905 14.4923 37.4469 14.7424C37.8031 14.9924 38.1059 15.311 38.3385 15.6789L40.9947 19.8566L28.0748 28.0715L23.6402 21.0969L33.7633 14.6604C34.2924 14.322 34.9077 14.1422 35.5357 14.1418ZM62.2398 18.675C62.3922 18.6894 62.538 18.7455 62.6598 18.8381C62.7816 18.9308 62.8748 19.0564 62.9293 19.1994L63.7564 21.3684L66.0123 21.9162C66.161 21.9524 66.2967 22.0297 66.4039 22.1389C66.5111 22.2481 66.5863 22.385 66.6197 22.5344C66.6531 22.6836 66.6438 22.8392 66.5934 22.9836C66.5429 23.1281 66.4527 23.2557 66.3336 23.3518L64.527 24.8088L64.7027 27.1232C64.7143 27.2759 64.6826 27.4289 64.6119 27.5647C64.5412 27.7002 64.434 27.8139 64.3023 27.8918C64.1707 27.9696 64.0197 28.0084 63.8668 28.0051C63.7139 28.0017 63.5652 27.9558 63.4371 27.8723L61.4928 26.6037L59.3463 27.4865C59.2047 27.5447 59.049 27.5617 58.898 27.5363C58.7472 27.511 58.6066 27.4441 58.4918 27.343C58.377 27.2418 58.2927 27.1106 58.2486 26.9641C58.2046 26.8176 58.2019 26.6615 58.2418 26.5139L58.8463 24.2727L57.3443 22.5031C57.2453 22.3865 57.1804 22.2443 57.1578 22.093C57.1354 21.9417 57.1557 21.787 57.2164 21.6467C57.2772 21.5063 57.3758 21.3853 57.5016 21.2981C57.6273 21.2108 57.7755 21.1612 57.9283 21.1535L60.2467 21.0363L61.4645 19.0607C61.5448 18.9304 61.6604 18.8253 61.7975 18.757C61.9344 18.6889 62.0876 18.6607 62.2398 18.675ZM22.6178 10.8107C23.3004 10.3767 24.128 10.2318 24.9176 10.4074C25.7084 10.5851 26.397 11.0704 26.8307 11.7551C27.264 12.4396 27.4083 13.2682 27.2311 14.0588L26.5572 17.2805L22.0572 20.134C22.007 20.1664 21.9605 20.2048 21.9186 20.2473L19.2203 21.9631L21.277 12.7229C21.4528 11.9331 21.9351 11.2449 22.6178 10.8107ZM56.3707 12.4836C56.476 12.4618 56.5844 12.4616 56.69 12.4816C56.7958 12.5017 56.8969 12.5418 56.9869 12.6008C57.077 12.6599 57.1548 12.7364 57.2154 12.8254C57.276 12.9145 57.3185 13.0148 57.3404 13.1203C57.3623 13.2258 57.3635 13.3348 57.3434 13.4406C56.8494 16.0399 55.6568 17.9171 53.7975 19.0188C52.3768 19.8607 50.7923 20.1086 49.4205 20.1086C48.2432 20.108 47.0713 19.9384 45.942 19.6057C45.7351 19.5387 45.5635 19.392 45.4645 19.1984C45.3654 19.0048 45.3468 18.7795 45.4137 18.5725C45.4806 18.3656 45.6273 18.194 45.8209 18.0949C46.0146 17.9958 46.2398 17.9773 46.4469 18.0441C46.5127 18.0651 50.2472 19.2218 52.9684 17.6037C54.4003 16.7518 55.3294 15.2477 55.7311 13.134C55.7512 13.0282 55.7921 12.9272 55.8512 12.8371C55.9103 12.7471 55.9867 12.6692 56.0758 12.6086C56.1648 12.5481 56.2653 12.5055 56.3707 12.4836ZM67.0182 11.8449C67.8341 11.8449 68.4957 12.5065 68.4957 13.3225C68.4955 14.1382 67.834 14.799 67.0182 14.799C66.2024 14.799 65.5408 14.1382 65.5406 13.3225C65.5406 12.5065 66.2022 11.8449 67.0182 11.8449ZM46.1949 10.0168C47.0106 10.0169 47.6723 10.6777 47.6725 11.4934C47.6725 12.3092 47.0108 12.9708 46.1949 12.9709C45.379 12.9709 44.7174 12.3093 44.7174 11.4934C44.7176 10.6776 45.3791 10.0168 46.1949 10.0168ZM57.3414 2.98262C57.4938 2.997 57.6395 3.054 57.7613 3.14668C57.8831 3.23932 57.9763 3.36411 58.0309 3.50704L58.858 5.67598L61.1139 6.22383C61.2625 6.25997 61.3983 6.33738 61.5055 6.44649C61.6126 6.55567 61.6879 6.6927 61.7213 6.842C61.7547 6.99136 61.7454 7.14771 61.6949 7.29219C61.6444 7.43649 61.5541 7.5634 61.4352 7.65938L59.6285 9.11641L59.8043 11.4318C59.8159 11.5844 59.7842 11.7376 59.7135 11.8732C59.6428 12.0088 59.5355 12.1215 59.4039 12.1994C59.2722 12.2774 59.1214 12.317 58.9684 12.3137C58.8153 12.3103 58.6659 12.2645 58.5377 12.1809L56.5934 10.9123L54.4469 11.7951C54.3054 11.8531 54.1504 11.8702 53.9996 11.8449C53.8488 11.8196 53.7081 11.7526 53.5934 11.6516C53.4787 11.5505 53.3943 11.419 53.3502 11.2727C53.3061 11.1261 53.3034 10.9693 53.3434 10.8215L53.9488 8.58125L52.4459 6.81172C52.3468 6.69506 52.2819 6.55295 52.2594 6.40157C52.2368 6.25027 52.2573 6.09568 52.318 5.95528C52.3787 5.81488 52.4775 5.69385 52.6031 5.60665C52.7289 5.51943 52.877 5.46881 53.0299 5.46114L55.3482 5.34493L56.566 3.36934C56.6463 3.23902 56.762 3.13291 56.899 3.06465C57.0359 2.99654 57.1892 2.96833 57.3414 2.98262Z" fill="url(#paint0_linear_5382_8639)"/>
<defs>
<linearGradient id="paint0_linear_5382_8639" x1="1.50544" y1="71.2908" x2="72.3501" y2="66.6976" gradientUnits="userSpaceOnUse">
<stop stop-color="#FF6F00"/>
<stop offset="1" stop-color="#FFC180"/>
</linearGradient>
</defs>
</svg>
