<svg width="45" height="45" viewBox="0 0 45 45" fill="none" xmlns="http://www.w3.org/2000/svg">
<rect x="0.0292969" y="0.0292969" width="44" height="44" rx="22" fill="white"/>
<path d="M30.3154 14.9811C30.3154 14.6374 30.1788 14.3077 29.9357 14.0646C29.6927 13.8216 29.363 13.685 29.0193 13.685L18.6482 13.685C18.4761 13.682 18.3051 13.7133 18.1452 13.7771C17.9853 13.8409 17.8398 13.9359 17.717 14.0565C17.5942 14.1772 17.4967 14.3211 17.4301 14.4798C17.3636 14.6386 17.3293 14.809 17.3293 14.9811C17.3293 15.1532 17.3636 15.3237 17.4301 15.4824C17.4967 15.6411 17.5942 15.785 17.717 15.9057C17.8398 16.0264 17.9853 16.1214 18.1452 16.1852C18.3051 16.2489 18.4761 16.2803 18.6482 16.2773L25.8898 16.2773L13.7505 28.4166C13.5073 28.6597 13.3708 28.9895 13.3708 29.3333C13.3708 29.6771 13.5073 30.0068 13.7505 30.2499C13.9936 30.493 14.3233 30.6296 14.6671 30.6296C15.0109 30.6296 15.3407 30.493 15.5838 30.2499L27.7231 18.1106L27.7231 25.3522C27.729 25.6921 27.8682 26.016 28.1106 26.2543C28.353 26.4925 28.6794 26.626 29.0193 26.626C29.3592 26.626 29.6855 26.4925 29.9279 26.2543C30.1704 26.016 30.3095 25.6921 30.3154 25.3522L30.3154 14.9811Z" fill="#202020"/>
</svg>
