<svg width="70" height="70" viewBox="0 0 70 70" fill="none" xmlns="http://www.w3.org/2000/svg">
<path d="M20.5845 67.0215H12.7026C11.8239 67.0205 10.9813 66.6702 10.3599 66.0488C9.73851 65.4274 9.3892 64.5848 9.38818 63.7061L9.38721 42.3115H20.5845V67.0215ZM46.5854 63.7061C46.5844 64.5847 46.2349 65.4275 45.6138 66.0488C44.9925 66.6701 44.1496 67.0204 43.271 67.0215H32.6528V42.3115H46.5854V63.7061ZM31.0112 67.0205H22.2251V42.3115H31.0112V67.0205ZM17.8198 34.5918L4.67725 42.9482L2.02197 38.7705C1.55131 38.0284 1.39352 37.1293 1.58447 36.2715C1.77547 35.4138 2.29959 34.6667 3.04053 34.1943L13.3853 27.6172L17.8198 34.5918ZM34.5708 36.8135C35.3867 36.8135 36.0483 37.4751 36.0483 38.291C36.0482 39.1068 35.3866 39.7686 34.5708 39.7686C33.7552 39.7683 33.0944 39.1067 33.0942 38.291C33.0942 37.4752 33.7551 36.8137 34.5708 36.8135ZM51.23 29.9736C51.3826 29.9626 51.535 29.9952 51.6704 30.0664L53.7251 31.1465L55.7798 30.0664C55.9153 29.9952 56.0685 29.9626 56.2212 29.9736C56.3738 29.9847 56.5203 30.039 56.644 30.1289C56.7678 30.2189 56.8638 30.3417 56.9214 30.4834C56.979 30.6251 56.9961 30.7799 56.9702 30.9307L56.5776 33.2188L58.2397 34.8389C58.3492 34.9456 58.4267 35.081 58.4634 35.2295C58.5001 35.3781 58.4941 35.5341 58.4468 35.6797C58.3995 35.8252 58.3128 35.9551 58.1958 36.0537C58.0788 36.1523 57.9361 36.2163 57.7847 36.2383L55.4878 36.5723L54.4604 38.6533C54.3928 38.7905 54.2886 38.9065 54.1587 38.9873C54.0287 39.0681 53.8782 39.1113 53.7251 39.1113C53.5722 39.1113 53.4224 39.068 53.2925 38.9873C53.1625 38.9065 53.0575 38.7906 52.9897 38.6533L51.9624 36.5723L49.6655 36.2383C49.5141 36.2163 49.3714 36.1524 49.2544 36.0537C49.1374 35.9551 49.0507 35.8253 49.0034 35.6797C48.9561 35.5341 48.9501 35.3781 48.9868 35.2295C49.0235 35.081 49.1009 34.9457 49.2104 34.8389L50.8726 33.2188L50.48 30.9307C50.4542 30.78 50.4713 30.625 50.5288 30.4834C50.5865 30.3416 50.6833 30.2179 50.8071 30.1279C50.9309 30.0381 51.0774 29.9846 51.23 29.9736ZM39.0659 33.3369C40.7664 32.2666 43.6276 31.1973 47.6021 32.1807C47.7075 32.2057 47.8074 32.2517 47.895 32.3154C47.9825 32.3791 48.0565 32.4594 48.1128 32.5518C48.1692 32.6443 48.2067 32.7474 48.2231 32.8545C48.2396 32.9615 48.2345 33.0707 48.2085 33.1758C48.1825 33.2809 48.1362 33.3798 48.0718 33.4668C48.0073 33.5539 47.9256 33.6281 47.8325 33.6836C47.7397 33.7389 47.6368 33.7756 47.5298 33.791C47.4227 33.8064 47.3133 33.8003 47.2085 33.7734C40.7503 32.1759 37.7814 36.6587 37.6567 36.8525C37.5402 37.0363 37.3554 37.1663 37.1431 37.2139C36.9309 37.2613 36.7086 37.2229 36.5249 37.1064C36.3412 36.9899 36.2111 36.8051 36.1636 36.5928C36.1161 36.3806 36.1547 36.1582 36.271 35.9746C36.3089 35.915 37.2146 34.5024 39.0659 33.3369ZM64.5854 32.377C65.4014 32.377 66.063 33.0386 66.063 33.8545C66.0628 34.6703 65.4013 35.332 64.5854 35.332C63.7697 35.332 63.1081 34.6703 63.1079 33.8545C63.1079 33.0386 63.7696 32.377 64.5854 32.377ZM26.6899 28.9512L19.2036 33.7119L14.769 26.7373L18.4009 24.4277C18.4208 24.4162 18.4404 24.4042 18.4595 24.3906L22.2554 21.9766L26.6899 28.9512ZM32.4888 29.9717C33.3047 29.9717 33.9663 30.6333 33.9663 31.4492C33.9662 32.2651 33.3047 32.9268 32.4888 32.9268C31.673 32.9266 31.0123 32.265 31.0122 31.4492C31.0122 30.6334 31.673 29.9719 32.4888 29.9717ZM42.644 24.4746C45.1763 22.5251 49.4214 20.7102 55.2612 23.1338C55.3607 23.1751 55.4508 23.2363 55.5269 23.3125C55.6029 23.3886 55.6635 23.4787 55.7046 23.5781C55.7457 23.6777 55.7672 23.7848 55.7671 23.8926C55.767 24.0001 55.7458 24.1067 55.7046 24.2061C55.6633 24.3056 55.6021 24.3965 55.5259 24.4727C55.4498 24.5486 55.3596 24.6093 55.2603 24.6504C55.1607 24.6915 55.0535 24.712 54.9458 24.7119C54.8382 24.7118 54.7317 24.6906 54.6323 24.6494C50.5262 22.9447 46.829 23.3235 43.645 25.7744C42.1642 26.9305 40.9348 28.3766 40.0308 30.0234C39.9833 30.1207 39.9166 30.2077 39.8354 30.2793C39.7543 30.3508 39.6595 30.4056 39.5571 30.4404C39.4548 30.4752 39.3466 30.4896 39.2388 30.4824C39.1308 30.4753 39.0252 30.4466 38.9282 30.3984C38.8313 30.3503 38.7443 30.2838 38.6733 30.2021C38.6024 30.1205 38.5483 30.0255 38.5142 29.9229C38.48 29.8202 38.4671 29.7114 38.4751 29.6035C38.483 29.4956 38.5122 29.3905 38.561 29.2939C39.5742 27.4225 40.9642 25.7811 42.644 24.4746ZM7.08643 22.9297C7.76889 22.4959 8.59572 22.3506 9.38525 22.5254L16.0142 24.001L13.3501 25.6943C13.2942 25.7142 13.2402 25.7401 13.1899 25.7715L8.65576 28.6143L8.05908 28.4814C7.26951 28.3056 6.58205 27.8232 6.14795 27.1406C5.71392 26.458 5.56896 25.6305 5.74463 24.8408C5.92133 24.0515 6.40385 23.3636 7.08643 22.9297ZM35.5356 14.1416C35.78 14.1418 36.0237 14.1684 36.2622 14.2217C36.6874 14.3152 37.0904 14.4921 37.4468 14.7422C37.803 14.9922 38.1058 15.3108 38.3384 15.6787L40.9946 19.8564L28.0747 28.0713L23.6401 21.0967L33.7632 14.6602C34.2923 14.3218 34.9076 14.142 35.5356 14.1416ZM62.2397 18.6748C62.3921 18.6892 62.5379 18.7453 62.6597 18.8379C62.7815 18.9306 62.8747 19.0562 62.9292 19.1992L63.7563 21.3682L66.0122 21.916C66.1609 21.9522 66.2966 22.0295 66.4038 22.1387C66.511 22.2479 66.5862 22.3848 66.6196 22.5342C66.653 22.6834 66.6437 22.839 66.5933 22.9834C66.5428 23.1279 66.4526 23.2555 66.3335 23.3516L64.5269 24.8086L64.7026 27.123C64.7142 27.2757 64.6825 27.4287 64.6118 27.5645C64.5411 27.7 64.4339 27.8137 64.3022 27.8916C64.1706 27.9694 64.0196 28.0082 63.8667 28.0049C63.7138 28.0015 63.5651 27.9556 63.437 27.8721L61.4927 26.6035L59.3462 27.4863C59.2046 27.5445 59.0489 27.5615 58.8979 27.5361C58.7471 27.5108 58.6065 27.4439 58.4917 27.3428C58.3769 27.2416 58.2926 27.1104 58.2485 26.9639C58.2045 26.8174 58.2018 26.6613 58.2417 26.5137L58.8462 24.2725L57.3442 22.5029C57.2452 22.3863 57.1803 22.2441 57.1577 22.0928C57.1353 21.9415 57.1556 21.7868 57.2163 21.6465C57.2771 21.5061 57.3757 21.3851 57.5015 21.2979C57.6272 21.2106 57.7754 21.161 57.9282 21.1533L60.2466 21.0361L61.4644 19.0605C61.5447 18.9302 61.6603 18.8251 61.7974 18.7568C61.9343 18.6887 62.0875 18.6605 62.2397 18.6748ZM22.6177 10.8105C23.3003 10.3765 24.1279 10.2316 24.9175 10.4072C25.7083 10.5849 26.3969 11.0702 26.8306 11.7549C27.2639 12.4394 27.4082 13.268 27.231 14.0586L26.5571 17.2803L22.0571 20.1338C22.0069 20.1662 21.9604 20.2046 21.9185 20.2471L19.2202 21.9629L21.2769 12.7227C21.4527 11.9329 21.935 11.2447 22.6177 10.8105ZM56.3706 12.4834C56.4759 12.4616 56.5843 12.4614 56.6899 12.4814C56.7957 12.5015 56.8968 12.5416 56.9868 12.6006C57.0769 12.6597 57.1547 12.7362 57.2153 12.8252C57.2759 12.9143 57.3184 13.0146 57.3403 13.1201C57.3622 13.2256 57.3634 13.3346 57.3433 13.4404C56.8493 16.0397 55.6567 17.9169 53.7974 19.0186C52.3767 19.8605 50.7922 20.1084 49.4204 20.1084C48.2431 20.1078 47.0712 19.9382 45.9419 19.6055C45.735 19.5385 45.5634 19.3918 45.4644 19.1982C45.3653 19.0046 45.3467 18.7793 45.4136 18.5723C45.4805 18.3654 45.6272 18.1938 45.8208 18.0947C46.0145 17.9956 46.2397 17.9771 46.4468 18.0439C46.5126 18.0649 50.2471 19.2216 52.9683 17.6035C54.4002 16.7516 55.3293 15.2475 55.731 13.1338C55.7511 13.028 55.792 12.927 55.8511 12.8369C55.9102 12.7469 55.9866 12.669 56.0757 12.6084C56.1647 12.5479 56.2652 12.5053 56.3706 12.4834ZM67.0181 11.8447C67.834 11.8447 68.4956 12.5063 68.4956 13.3223C68.4954 14.138 67.8339 14.7988 67.0181 14.7988C66.2023 14.7988 65.5407 14.138 65.5405 13.3223C65.5405 12.5063 66.2021 11.8447 67.0181 11.8447ZM46.1948 10.0166C47.0105 10.0167 47.6722 10.6775 47.6724 11.4932C47.6724 12.309 47.0107 12.9706 46.1948 12.9707C45.3789 12.9707 44.7173 12.3091 44.7173 11.4932C44.7175 10.6774 45.379 10.0166 46.1948 10.0166ZM57.3413 2.98242C57.4937 2.9968 57.6394 3.0538 57.7612 3.14648C57.883 3.23912 57.9762 3.36391 58.0308 3.50684L58.8579 5.67578L61.1138 6.22363C61.2624 6.25977 61.3982 6.33718 61.5054 6.44629C61.6125 6.55547 61.6878 6.6925 61.7212 6.8418C61.7546 6.99116 61.7453 7.14751 61.6948 7.29199C61.6443 7.43629 61.554 7.5632 61.4351 7.65918L59.6284 9.11621L59.8042 11.4316C59.8158 11.5842 59.7841 11.7374 59.7134 11.873C59.6427 12.0086 59.5354 12.1213 59.4038 12.1992C59.2721 12.2772 59.1213 12.3168 58.9683 12.3135C58.8152 12.3101 58.6658 12.2643 58.5376 12.1807L56.5933 10.9121L54.4468 11.7949C54.3053 11.8529 54.1503 11.87 53.9995 11.8447C53.8487 11.8194 53.708 11.7524 53.5933 11.6514C53.4786 11.5503 53.3942 11.4188 53.3501 11.2725C53.306 11.1259 53.3033 10.9691 53.3433 10.8213L53.9487 8.58105L52.4458 6.81152C52.3467 6.69486 52.2818 6.55275 52.2593 6.40137C52.2367 6.25007 52.2572 6.09548 52.3179 5.95508C52.3786 5.81468 52.4774 5.69365 52.603 5.60645C52.7288 5.51923 52.8769 5.46861 53.0298 5.46094L55.3481 5.34473L56.5659 3.36914C56.6462 3.23882 56.7619 3.13271 56.8989 3.06445C57.0358 2.99634 57.1891 2.96813 57.3413 2.98242Z" fill="url(#paint0_linear_5382_8782)"/>
<defs>
<linearGradient id="paint0_linear_5382_8782" x1="1.50537" y1="71.2906" x2="72.35" y2="66.6974" gradientUnits="userSpaceOnUse">
<stop stop-color="#4481EB"/>
<stop offset="1" stop-color="#04BEFE"/>
</linearGradient>
</defs>
</svg>
