<svg width="70" height="70" viewBox="0 0 70 70" fill="none" xmlns="http://www.w3.org/2000/svg">
<path d="M17.8809 47.2725L21.6865 53.4473L28.8887 52.5781L33.5371 55.5449L28.9121 70L21.0527 63.7188L11.0078 64.2715L16.5879 46.8311L17.8809 47.2725ZM58.9932 64.2715L48.9473 63.7188L41.0879 70L36.4629 55.5449L41.1113 52.5781L48.3135 53.4473L52.1191 47.2725L53.4131 46.8311L58.9932 64.2715ZM40.1436 3.28223L46.1982 2.55176L49.3994 7.74609L55.1758 9.71582L55.8154 15.7832L60.1621 20.0615L58.0957 25.8047L60.1621 31.5479L55.8154 35.8262L55.1758 41.8936L49.3994 43.8633L46.1982 49.0576L40.1436 48.3271L35 51.6094L29.8574 48.3271L23.8027 49.0576L20.6016 43.8633L14.8252 41.8936L14.1846 35.8262L9.83887 31.5479L11.9053 25.8047L9.83887 20.0615L14.1846 15.7832L14.8252 9.71582L20.6016 7.74609L23.8027 2.55176L29.8574 3.28223L35 0L40.1436 3.28223ZM35 8.10938C25.2429 8.10954 17.3047 16.0476 17.3047 25.8047C17.3047 35.5618 25.2429 43.4998 35 43.5C44.7572 43.5 52.6953 35.5619 52.6953 25.8047C52.6953 16.0475 44.7572 8.10938 35 8.10938ZM35 12.2139C42.4941 12.2139 48.5916 18.3106 48.5918 25.8047C48.5916 33.2988 42.4941 39.3965 35 39.3965C27.5061 39.3962 21.4093 33.2986 21.4092 25.8047C21.4094 18.3108 27.5061 12.2142 35 12.2139ZM35.0547 17.9111C34.7808 17.9112 34.5137 17.9973 34.292 18.1582C34.0705 18.3191 33.9059 18.5464 33.8213 18.8066L32.5977 22.5684H28.6416C28.3677 22.5685 28.1005 22.6554 27.8789 22.8164C27.6576 22.9774 27.4928 23.2046 27.4082 23.4648C27.3238 23.7251 27.3237 24.0054 27.4082 24.2656C27.4928 24.5259 27.6575 24.7532 27.8789 24.9141L31.0801 27.2393L29.8574 31.001C29.7727 31.2614 29.7719 31.5423 29.8564 31.8027C29.9411 32.0632 30.1065 32.2902 30.3281 32.4512C30.5498 32.6121 30.8169 32.6991 31.0908 32.6992C31.3648 32.6992 31.6329 32.6122 31.8545 32.4512L35.0547 30.126L38.2559 32.4512C38.4775 32.6122 38.7446 32.6991 39.0186 32.6992C39.2926 32.6992 39.5596 32.6121 39.7812 32.4512C40.0029 32.2902 40.1682 32.0631 40.2529 31.8027C40.3375 31.5423 40.3376 31.2613 40.2529 31.001L39.0293 27.2393L42.2305 24.9141C42.4519 24.7532 42.6175 24.5259 42.7021 24.2656C42.7867 24.0055 42.7865 23.725 42.7021 23.4648C42.6175 23.2044 42.452 22.9774 42.2305 22.8164C42.0087 22.6554 41.7417 22.5684 41.4678 22.5684H37.5117L36.2891 18.8066C36.2043 18.5462 36.039 18.3192 35.8174 18.1582C35.5958 17.9973 35.3286 17.9111 35.0547 17.9111Z" fill="url(#paint0_linear_5382_8759)"/>
<defs>
<linearGradient id="paint0_linear_5382_8759" x1="9.83887" y1="74.6667" x2="63.1754" y2="72.29" gradientUnits="userSpaceOnUse">
<stop stop-color="#4481EB"/>
<stop offset="1" stop-color="#04BEFE"/>
</linearGradient>
</defs>
</svg>
