<svg width="40" height="40" viewBox="0 0 40 40" fill="none" xmlns="http://www.w3.org/2000/svg">
<path d="M20.0003 10C25.8296 10 30.5549 14.7253 30.5549 20.5545C30.5549 26.3838 25.8296 31.1091 20.0003 31.1091C14.1711 31.1091 9.4458 26.3838 9.4458 20.5545C9.4458 14.7253 14.1711 10 20.0003 10ZM20.0003 12.1109C17.7609 12.1109 15.6133 13.0005 14.0298 14.584C12.4463 16.1675 11.5567 18.3151 11.5567 20.5545C11.5567 22.7939 12.4463 24.9416 14.0298 26.5251C15.6133 28.1086 17.7609 28.9982 20.0003 28.9982C22.2397 28.9982 24.3874 28.1086 25.9709 26.5251C27.5544 24.9416 28.444 22.7939 28.444 20.5545C28.444 18.3151 27.5544 16.1675 25.9709 14.584C24.3874 13.0005 22.2397 12.1109 20.0003 12.1109ZM20.0003 14.2218C20.2588 14.2218 20.5084 14.3168 20.7015 14.4885C20.8947 14.6603 21.0182 14.897 21.0484 15.1538L21.0558 15.2773V20.1176L23.9129 22.9747C24.1022 23.1646 24.2121 23.4195 24.2203 23.6875C24.2285 23.9556 24.1343 24.2167 23.957 24.4178C23.7796 24.6189 23.5324 24.745 23.2654 24.7704C22.9985 24.7959 22.7318 24.7187 22.5197 24.5547L22.4205 24.4671L19.2541 21.3007C19.0901 21.1366 18.9847 20.9229 18.9544 20.6928L18.9449 20.5545V15.2773C18.9449 14.9973 19.0561 14.7289 19.254 14.5309C19.452 14.333 19.7204 14.2218 20.0003 14.2218Z" fill="#2E7D32"/>
</svg>
