<svg width="70" height="70" viewBox="0 0 70 70" fill="none" xmlns="http://www.w3.org/2000/svg">
<g clip-path="url(#clip0_5382_8607)">
<mask id="mask0_5382_8607" style="mask-type:luminance" maskUnits="userSpaceOnUse" x="0" y="0" width="70" height="70">
<path d="M70 0H0V70H70V0Z" fill="white"/>
</mask>
<g mask="url(#mask0_5382_8607)">
<path d="M46.3496 6.20621C48.2021 5.60611 50.2073 6.08836 51.584 7.465L55.6094 11.4904L49.5596 17.5412C47.2736 16.4502 44.4484 16.8506 42.5576 18.7414C40.1599 21.1395 40.1598 25.0432 42.5576 27.4426C43.7566 28.6414 45.3334 29.2413 46.9082 29.2414C48.4831 29.2414 50.0598 28.6414 51.2588 27.4426C53.1495 25.5519 53.5504 22.7255 52.4609 20.4397L58.5107 14.3908L62.5352 18.4162C63.9104 19.793 64.3947 21.7991 63.7959 23.6516L59.9541 35.5236C59.4906 36.959 58.6815 38.2816 57.6152 39.3479L27.5625 69.4006C27.1784 69.7845 26.6572 70.0002 26.1133 70.0002C25.5694 70.0002 25.0472 69.7844 24.6631 69.4006L0.600586 45.3381C0.216489 44.954 9.60596e-05 44.4309 0 43.8869C3.56388e-05 43.3429 0.216549 42.8218 0.600586 42.4377L30.6523 12.3859C31.7187 11.3196 33.041 10.5096 34.4766 10.0461L46.3496 6.20621ZM27.8906 28.1643C27.6006 28.1643 27.3223 28.2795 27.1172 28.4846C26.9123 28.6896 26.7969 28.9681 26.7969 29.258V31.6691C26.7991 32.4952 26.6374 33.3142 26.3213 34.0773C26.005 34.8405 25.5408 35.534 24.9551 36.1164L24.1562 36.9143H18.0469C17.7568 36.9143 17.4785 37.0295 17.2734 37.2346C17.0685 37.4396 16.9532 37.7181 16.9531 38.008V50.0393C16.9532 50.3291 17.0685 50.6077 17.2734 50.8127C17.4785 51.0177 17.7568 51.133 18.0469 51.133H37.1875C37.6303 51.1331 38.0669 51.0263 38.459 50.8205C38.8512 50.6147 39.187 50.3158 39.4385 49.9514C39.6899 49.5869 39.849 49.1663 39.9023 48.7268C39.9554 48.2872 39.9014 47.8408 39.7441 47.427C40.2766 47.0901 40.6766 46.5794 40.876 45.9816C41.0752 45.3838 41.0618 44.7348 40.8379 44.1457C41.3704 43.8088 41.7704 43.2982 41.9697 42.7004C42.169 42.1026 42.1556 41.4535 41.9316 40.8645C42.4316 40.5476 42.8158 40.0771 43.0254 39.5236C43.2351 38.9699 43.2587 38.3618 43.0938 37.7932C42.9288 37.2246 42.5836 36.725 42.1104 36.3693C41.6369 36.0135 41.0609 35.8206 40.4688 35.8205H34.4531C34.1632 35.8202 33.8846 35.7051 33.6797 35.5002C33.4748 35.2952 33.3597 35.0166 33.3594 34.7268V31.4455C33.3582 30.576 33.0121 29.7422 32.3975 29.1272C31.7824 28.5121 30.948 28.1653 30.0781 28.1643H27.8906ZM23.5156 48.9455H19.1406V39.1018H23.5156V48.9455ZM30.0781 30.3518C30.368 30.3521 30.6455 30.4681 30.8506 30.6731C31.0555 30.8781 31.1715 31.1557 31.1719 31.4455V34.7268C31.173 35.5965 31.5187 36.431 32.1338 37.0461C32.7489 37.6611 33.5832 38.007 34.4531 38.008H40.4688C40.6137 38.008 40.753 38.0657 40.8555 38.1682C40.9578 38.2707 41.0156 38.41 41.0156 38.5549C41.0155 38.6997 40.9578 38.8391 40.8555 38.9416C40.753 39.044 40.6136 39.1017 40.4688 39.1018H39.375C39.085 39.1018 38.8068 39.2171 38.6016 39.4221C38.3967 39.6271 38.2813 39.9056 38.2812 40.1955C38.2813 40.4854 38.3966 40.764 38.6016 40.969C38.8068 41.174 39.085 41.2893 39.375 41.2893C39.4256 41.2893 39.4756 41.2963 39.5234 41.3098C39.6124 41.335 39.6951 41.3829 39.7617 41.4494C39.8289 41.5167 39.8764 41.6006 39.9014 41.6906C39.9089 41.7179 39.9148 41.7463 39.918 41.7746C39.9203 41.7948 39.9219 41.8156 39.9219 41.8361C39.9218 41.981 39.864 42.1204 39.7617 42.2229C39.6592 42.3253 39.5199 42.383 39.375 42.383H38.2812C37.9912 42.383 37.713 42.4983 37.5078 42.7033C37.3029 42.9083 37.1876 43.1869 37.1875 43.4768C37.1876 43.7667 37.3028 44.0452 37.5078 44.2502C37.713 44.4552 37.9912 44.5705 38.2812 44.5705C38.4262 44.5705 38.5655 44.6282 38.668 44.7307C38.7034 44.7662 38.7336 44.8068 38.7578 44.8498C38.8033 44.9307 38.8281 45.0229 38.8281 45.1174C38.828 45.2622 38.7703 45.4016 38.668 45.5041C38.5655 45.6065 38.4261 45.6642 38.2812 45.6643H37.1875C36.8975 45.6643 36.6193 45.7796 36.4141 45.9846C36.2092 46.1896 36.0938 46.4681 36.0938 46.758C36.0938 47.0479 36.2091 47.3265 36.4141 47.5314C36.6193 47.7365 36.8975 47.8518 37.1875 47.8518C37.3324 47.8518 37.4717 47.9094 37.5742 48.0119C37.6766 48.1144 37.7343 48.2538 37.7344 48.3986C37.7343 48.5435 37.6765 48.6829 37.5742 48.7854C37.4717 48.8878 37.3324 48.9455 37.1875 48.9455H25.7031V38.4611L26.502 37.6633C27.2915 36.878 27.9166 35.943 28.3428 34.9143C28.7689 33.8857 28.9874 32.7826 28.9844 31.6691V30.3518H30.0781ZM45.457 21.6408C46.2585 20.8421 47.5581 20.8421 48.3594 21.6408C49.1556 22.4372 49.1651 23.7345 48.3594 24.5432C47.5551 25.3445 46.2606 25.344 45.457 24.5432C44.6585 23.7432 44.6587 22.4409 45.457 21.6408ZM66.499 0.599772C67.3002 -0.19987 68.5993 -0.199978 69.4004 0.599772C70.2001 1.40089 70.2 2.69996 69.4004 3.50114L58.5107 14.3908L55.6094 11.4904L66.499 0.599772Z" fill="url(#paint0_linear_5382_8607)"/>
</g>
</g>
<defs>
<linearGradient id="paint0_linear_5382_8607" x1="1.86993e-07" y1="74.6668" x2="74.0542" y2="70.0767" gradientUnits="userSpaceOnUse">
<stop stop-color="#FF6F00"/>
<stop offset="1" stop-color="#FFC180"/>
</linearGradient>
<clipPath id="clip0_5382_8607">
<rect width="70" height="70" fill="white"/>
</clipPath>
</defs>
</svg>
