<svg width="40" height="40" viewBox="0 0 40 40" fill="none" xmlns="http://www.w3.org/2000/svg">
<g clip-path="url(#clip0_5388_8813)">
<mask id="mask0_5388_8813" style="mask-type:luminance" maskUnits="userSpaceOnUse" x="0" y="0" width="40" height="41">
<path d="M40 0.00195312H0V40.002H40V0.00195312Z" fill="white"/>
</mask>
<g mask="url(#mask0_5388_8813)">
<path d="M29.8881 24.9221V27.9221C29.8892 28.2006 29.8322 28.4762 29.7206 28.7314C29.6091 28.9866 29.4454 29.2156 29.2402 29.4039C29.035 29.5922 28.7927 29.7355 28.5289 29.8248C28.265 29.914 27.9855 29.9471 27.7081 29.9221C24.631 29.5877 21.6751 28.5362 19.0781 26.8521C16.6619 25.3167 14.6135 23.2682 13.0781 20.8521C11.3881 18.2433 10.3364 15.273 10.0081 12.182C9.98314 11.9055 10.016 11.6268 10.1046 11.3637C10.1932 11.1005 10.3357 10.8587 10.5229 10.6537C10.7101 10.4486 10.9379 10.2848 11.1919 10.1726C11.4459 10.0604 11.7205 10.0023 11.9981 10.0021H14.9981C15.4834 9.99722 15.9539 10.1691 16.3219 10.4856C16.6898 10.802 16.9302 11.2415 16.9981 11.7221C17.1247 12.6821 17.3596 13.6248 17.6981 14.5321C17.8327 14.89 17.8618 15.279 17.782 15.6529C17.7023 16.0269 17.517 16.3702 17.2481 16.6421L15.9781 17.912C17.4017 20.4156 19.4746 22.4885 21.9781 23.9121L23.2481 22.6421C23.52 22.3732 23.8633 22.1879 24.2372 22.1081C24.6112 22.0284 25.0002 22.0575 25.3581 22.192C26.2654 22.5306 27.2081 22.7654 28.1681 22.8921C28.6539 22.9606 29.0975 23.2053 29.4146 23.5795C29.7318 23.9538 29.9003 24.4316 29.8881 24.9221Z" stroke="#336B9C" stroke-width="2" stroke-linecap="round" stroke-linejoin="round"/>
</g>
</g>
<defs>
<clipPath id="clip0_5388_8813">
<rect width="40" height="40" fill="white"/>
</clipPath>
</defs>
</svg>
