<svg width="40" height="40" viewBox="0 0 40 40" fill="none" xmlns="http://www.w3.org/2000/svg">
<path d="M20 14.5C20.663 14.5 21.2989 14.7634 21.7678 15.2322C22.2366 15.7011 22.5 16.337 22.5 17C22.5 17.3283 22.4353 17.6534 22.3097 17.9567C22.1841 18.26 21.9999 18.5356 21.7678 18.7678C21.5356 18.9999 21.26 19.1841 20.9567 19.3097C20.6534 19.4353 20.3283 19.5 20 19.5C19.337 19.5 18.7011 19.2366 18.2322 18.7678C17.7634 18.2989 17.5 17.663 17.5 17C17.5 16.337 17.7634 15.7011 18.2322 15.2322C18.7011 14.7634 19.337 14.5 20 14.5ZM20 10C21.8565 10 23.637 10.7375 24.9497 12.0503C26.2625 13.363 27 15.1435 27 17C27 22.25 20 30 20 30C20 30 13 22.25 13 17C13 15.1435 13.7375 13.363 15.0503 12.0503C16.363 10.7375 18.1435 10 20 10ZM20 12C18.6739 12 17.4021 12.5268 16.4645 13.4645C15.5268 14.4021 15 15.6739 15 17C15 18 15 20 20 26.71C25 20 25 18 25 17C25 15.6739 24.4732 14.4021 23.5355 13.4645C22.5979 12.5268 21.3261 12 20 12Z" fill="#F8F9FA"/>
</svg>
