<svg width="83" height="75" viewBox="0 0 83 75" fill="none" xmlns="http://www.w3.org/2000/svg">
<circle cx="25" cy="25" r="25" fill="#B6E0F2"/>
<path d="M59.947 64.8231L57.3245 73.8808H55.5364L58.0397 64.8231M59.947 64.8231H58.0397M59.947 64.8231H63.6424H67.3377M58.0397 64.8231H54.106V60.2942H60.9007M56.7285 62.6778H63.6424H70.5563M63.6424 43.2514V52.4283M63.6424 52.4283H62.6887M63.6424 52.4283H64.596M60.9007 60.2942H63.6424H66.3841M60.9007 60.2942L59.351 52.4283H62.6887M62.6887 52.4283C61.9735 51.5543 60.6623 49.1628 60.6623 46.5885C60.6623 44.0142 62.649 41.3048 63.6424 40.2719C64.6358 41.3048 66.6225 44.0142 66.6225 46.5885C66.6225 49.1628 65.3113 51.5543 64.596 52.4283M67.3377 64.8231L69.9603 73.8808H71.7483L69.245 64.8231M67.3377 64.8231H69.245M69.245 64.8231H73.1788V60.2942H66.3841M66.3841 60.2942L67.9338 52.4283H64.596M46 10V24.1825M47.3113 27.6387H46H44.6887M47.3113 27.6387V25.3743C47.3113 24.8976 46.7629 24.1825 46 24.1825M47.3113 27.6387C49.8146 27.6387 55.5364 30.4991 55.5364 32.5251V34.3129H46H36.4636V32.5251C36.4636 30.4991 42.1854 27.6387 44.6887 27.6387M46 24.1825C45.2371 24.1825 44.6887 24.8976 44.6887 25.3743V27.6387M41.0689 59.1024H47.1921C49.4305 59.1024 51.245 60.9166 51.245 63.1546C51.245 64.8004 50.2636 66.2171 48.8539 66.8515M41.0689 59.1024H40.0397M41.0689 59.1024L41.2238 58.0634C41.5024 56.1949 43.1072 54.8119 44.9967 54.8119H46.8344M40.0397 59.1024H31.9338M40.0397 59.1024V49.3296C40.0397 45.6436 37.051 42.6555 33.3642 42.6555H26.6887C23.002 42.6555 20.0132 45.6436 20.0132 49.3296V60.5326C20.0132 62.404 20.7836 64.0954 22.0245 65.3073M30.7943 67.2067H30.0265H29.9073H26.6887C24.8737 67.2067 23.2279 66.4825 22.0245 65.3073M30.7943 67.2067H39.8606M30.7943 67.2067L28.7152 54.8119M30.7943 67.2067L31.9338 74M39.8606 67.2067H47.1921C47.7843 67.2067 48.3468 67.0797 48.8539 66.8515M39.8606 67.2067L38.8477 74M53.8675 54.8119H46.8344M46.8344 54.8119L47.5541 59.1024M48.8535 66.8492L48.8539 66.8515M48.8539 66.8515L50.053 74M22.0245 65.3073L23.1046 58.0634C23.3832 56.1949 24.988 54.8119 26.8775 54.8119H28.7152M22.0245 65.3073L20.7285 74M35.7483 54.8119H28.7152M77.1126 62.6778H82V10.1192H10V62.6778H14.8874" stroke="white" stroke-width="1.2"/>
</svg>
