<svg width="70" height="70" viewBox="0 0 70 70" fill="none" xmlns="http://www.w3.org/2000/svg">
<g clip-path="url(#clip0_5098_9263)">
<path d="M46.3496 6.20605C48.2021 5.60595 50.2073 6.0882 51.584 7.46484L55.6094 11.4902L49.5596 17.541C47.2736 16.45 44.4484 16.8504 42.5576 18.7412C40.1599 21.1392 40.1598 25.043 42.5576 27.4424C43.7566 28.6412 45.3334 29.2411 46.9082 29.2412C48.4831 29.2412 50.0598 28.6412 51.2588 27.4424C53.1495 25.5517 53.5504 22.7253 52.4609 20.4395L58.5107 14.3906L62.5352 18.416C63.9104 19.7928 64.3947 21.7989 63.7959 23.6514L59.9541 35.5234C59.4906 36.9588 58.6815 38.2814 57.6152 39.3477L27.5625 69.4004C27.1784 69.7843 26.6572 70 26.1133 70C25.5694 70 25.0472 69.7842 24.6631 69.4004L0.600586 45.3379C0.216489 44.9538 9.60596e-05 44.4307 0 43.8867C3.56388e-05 43.3427 0.216549 42.8216 0.600586 42.4375L30.6523 12.3857C31.7187 11.3194 33.041 10.5094 34.4766 10.0459L46.3496 6.20605ZM27.8906 28.1641C27.6006 28.1641 27.3223 28.2793 27.1172 28.4844C26.9123 28.6894 26.7969 28.9679 26.7969 29.2578V31.6689C26.7991 32.495 26.6374 33.314 26.3213 34.0771C26.005 34.8403 25.5408 35.5338 24.9551 36.1162L24.1562 36.9141H18.0469C17.7568 36.9141 17.4785 37.0293 17.2734 37.2344C17.0685 37.4394 16.9532 37.7179 16.9531 38.0078V50.0391C16.9532 50.3289 17.0685 50.6075 17.2734 50.8125C17.4785 51.0175 17.7568 51.1328 18.0469 51.1328H37.1875C37.6303 51.1329 38.0669 51.0261 38.459 50.8203C38.8512 50.6145 39.187 50.3156 39.4385 49.9512C39.6899 49.5867 39.849 49.1661 39.9023 48.7266C39.9554 48.287 39.9014 47.8406 39.7441 47.4268C40.2766 47.0899 40.6766 46.5792 40.876 45.9814C41.0752 45.3836 41.0618 44.7346 40.8379 44.1455C41.3704 43.8086 41.7704 43.298 41.9697 42.7002C42.169 42.1024 42.1556 41.4533 41.9316 40.8643C42.4316 40.5474 42.8158 40.0769 43.0254 39.5234C43.2351 38.9697 43.2587 38.3616 43.0938 37.793C42.9288 37.2244 42.5836 36.7248 42.1104 36.3691C41.6369 36.0133 41.0609 35.8204 40.4688 35.8203H34.4531C34.1632 35.82 33.8846 35.7049 33.6797 35.5C33.4748 35.295 33.3597 35.0164 33.3594 34.7266V31.4453C33.3582 30.5758 33.0121 29.742 32.3975 29.127C31.7824 28.5119 30.948 28.1651 30.0781 28.1641H27.8906ZM23.5156 48.9453H19.1406V39.1016H23.5156V48.9453ZM30.0781 30.3516C30.368 30.3519 30.6455 30.4679 30.8506 30.6729C31.0555 30.8779 31.1715 31.1555 31.1719 31.4453V34.7266C31.173 35.5963 31.5187 36.4308 32.1338 37.0459C32.7489 37.6609 33.5832 38.0068 34.4531 38.0078H40.4688C40.6137 38.0078 40.753 38.0655 40.8555 38.168C40.9578 38.2705 41.0156 38.4098 41.0156 38.5547C41.0155 38.6995 40.9578 38.8389 40.8555 38.9414C40.753 39.0438 40.6136 39.1015 40.4688 39.1016H39.375C39.085 39.1016 38.8068 39.2169 38.6016 39.4219C38.3967 39.6269 38.2813 39.9054 38.2812 40.1953C38.2813 40.4852 38.3966 40.7638 38.6016 40.9688C38.8068 41.1738 39.085 41.2891 39.375 41.2891C39.4256 41.2891 39.4756 41.2961 39.5234 41.3096C39.6124 41.3348 39.6951 41.3827 39.7617 41.4492C39.8289 41.5165 39.8764 41.6004 39.9014 41.6904C39.9089 41.7177 39.9148 41.7461 39.918 41.7744C39.9203 41.7946 39.9219 41.8154 39.9219 41.8359C39.9218 41.9808 39.864 42.1202 39.7617 42.2227C39.6592 42.3251 39.5199 42.3828 39.375 42.3828H38.2812C37.9912 42.3828 37.713 42.4981 37.5078 42.7031C37.3029 42.9081 37.1876 43.1867 37.1875 43.4766C37.1876 43.7665 37.3028 44.045 37.5078 44.25C37.713 44.455 37.9912 44.5703 38.2812 44.5703C38.4262 44.5703 38.5655 44.628 38.668 44.7305C38.7034 44.766 38.7336 44.8066 38.7578 44.8496C38.8033 44.9305 38.8281 45.0227 38.8281 45.1172C38.828 45.262 38.7703 45.4014 38.668 45.5039C38.5655 45.6063 38.4261 45.664 38.2812 45.6641H37.1875C36.8975 45.6641 36.6193 45.7794 36.4141 45.9844C36.2092 46.1894 36.0938 46.4679 36.0938 46.7578C36.0938 47.0477 36.2091 47.3263 36.4141 47.5312C36.6193 47.7363 36.8975 47.8516 37.1875 47.8516C37.3324 47.8516 37.4717 47.9092 37.5742 48.0117C37.6766 48.1142 37.7343 48.2536 37.7344 48.3984C37.7343 48.5433 37.6765 48.6827 37.5742 48.7852C37.4717 48.8876 37.3324 48.9453 37.1875 48.9453H25.7031V38.4609L26.502 37.6631C27.2915 36.8778 27.9166 35.9428 28.3428 34.9141C28.7689 33.8855 28.9874 32.7824 28.9844 31.6689V30.3516H30.0781ZM45.457 21.6406C46.2585 20.8419 47.5581 20.8419 48.3594 21.6406C49.1556 22.437 49.1651 23.7343 48.3594 24.543C47.5551 25.3443 46.2606 25.3438 45.457 24.543C44.6585 23.743 44.6587 22.4407 45.457 21.6406ZM66.499 0.599609C67.3002 -0.200033 68.5993 -0.200141 69.4004 0.599609C70.2001 1.40073 70.2 2.6998 69.4004 3.50098L58.5107 14.3906L55.6094 11.4893L66.499 0.599609Z" fill="url(#paint0_linear_5098_9263)"/>
</g>
<defs>
<linearGradient id="paint0_linear_5098_9263" x1="2.41514e-07" y1="74.6666" x2="74.0542" y2="70.0765" gradientUnits="userSpaceOnUse">
<stop stop-color="#4481EB"/>
<stop offset="1" stop-color="#04BEFE"/>
</linearGradient>
<clipPath id="clip0_5098_9263">
<rect width="70" height="70" fill="white"/>
</clipPath>
</defs>
</svg>
