<svg width="70" height="70" viewBox="0 0 70 70" fill="none" xmlns="http://www.w3.org/2000/svg">
<g clip-path="url(#clip0_5098_9248)">
<path d="M33.7178 0C29.6041 2.09631 26.3068 5.56333 24.4248 9.79883H20.9629V15.7178H22.8223C22.7395 16.46 22.6953 17.2142 22.6953 17.9785C22.6953 18.8412 22.7494 19.6912 22.8545 20.5254H20.9629V26.4443H24.5547C25.5528 28.599 26.9189 30.5482 28.5742 32.21V37.1709H32.6758V35.3848C34.3803 36.3843 36.2441 37.1409 38.2207 37.6064V70H26.7959V53.6855H11.6221V70H0V0H33.7178ZM22.6953 70H15.7236V57.7871H22.6953V70ZM54.3301 41.0156L58.5156 45.1172V70H41.7754V38.1445C43.9554 38.1445 47.4415 37.666 49.4238 36.4355L54.3301 41.0156ZM48.1934 65.2041H52.2949V59.2852H48.1934V65.2041ZM48.1934 54.4775H52.2949V48.5586H48.1934V54.4775ZM5.74219 47.8965H9.84375V41.9775H5.74219V47.8965ZM13.3535 47.8965H17.4551V41.9775H13.3535V47.8965ZM20.9629 47.8965H25.0645V41.9775H20.9629V47.8965ZM28.5742 47.8965H32.6758V41.9775H28.5742V47.8965ZM68.583 37.0303C69.4968 37.9441 69.9999 39.1588 70 40.4512C70 41.7436 69.497 42.9592 68.583 43.873C67.6693 44.7868 66.4544 45.2899 65.1621 45.29C63.8696 45.29 62.654 44.7869 61.7402 43.873L53.1826 35.3154C55.9743 33.6165 58.3257 31.2632 60.0234 28.4707L68.583 37.0303ZM5.74219 37.1709H9.84375V31.251H5.74219V37.1709ZM13.3535 37.1709H17.4551V31.251H13.3535V37.1709ZM20.9629 37.1709H25.0645V31.251H20.9629V37.1709ZM42.8613 0.273438C52.6396 0.273438 60.5664 8.20027 60.5664 17.9785C60.5664 27.7568 52.6396 35.6836 42.8613 35.6836C33.0831 35.6836 25.1562 27.7568 25.1562 17.9785C25.1562 8.20027 33.0831 0.273438 42.8613 0.273438ZM42.8613 3.00781C34.5932 3.00781 27.8906 9.71042 27.8906 17.9785C27.8906 26.2466 34.5932 32.9492 42.8613 32.9492C51.1294 32.9492 57.832 26.2466 57.832 17.9785C57.832 9.71042 51.1294 3.00781 42.8613 3.00781ZM42.8613 5.19531C49.9213 5.19531 55.6445 10.9185 55.6445 17.9785C55.6445 25.0385 49.9213 30.7617 42.8613 30.7617C35.8014 30.7617 30.0781 25.0385 30.0781 17.9785C30.0781 10.9185 35.8014 5.19531 42.8613 5.19531ZM5.74219 26.4443H9.84375V20.5254H5.74219V26.4443ZM13.3535 26.4443H17.4551V20.5254H13.3535V26.4443ZM38.6895 23.6826V24.9619H37.7627V25.8887H47.96V24.9619H47.0332V23.6826L42.8613 22.1182L38.6895 23.6826ZM43.3252 15.6143C43.1753 15.6448 43.02 15.6611 42.8613 15.6611C42.7959 15.6611 42.7311 15.6578 42.667 15.6523C42.5757 15.6446 42.4855 15.6322 42.3975 15.6143V21.3018L42.8613 21.1279L43.3252 21.3018V15.6143ZM34.9512 17.9785C34.9512 19.278 36.3762 20.2959 38.1953 20.2959C40.0145 20.2959 41.4395 19.278 41.4395 17.9785V17.5146H34.9512V17.9785ZM44.2832 17.9785C44.2832 19.278 45.7082 20.2959 47.5273 20.2959C49.3464 20.2959 50.7715 19.278 50.7715 17.9785V17.5146H44.2832V17.9785ZM34.9512 13.8066H37.5107L36.3984 16.5879H37.3965L38.1953 14.5918L38.9941 16.5879H39.9922L38.8799 13.8066H40.5596C40.529 13.657 40.5127 13.5022 40.5127 13.3438C40.5127 13.2543 40.5183 13.1659 40.5283 13.0791C40.536 13.012 40.5462 12.9452 40.5596 12.8799H34.9512V13.8066ZM45.1631 12.8799C45.1937 13.0297 45.21 13.185 45.21 13.3438C45.2099 13.5022 45.1936 13.657 45.1631 13.8066H46.8428L45.7305 16.5879H46.7285L47.5273 14.5918L48.3262 16.5879H49.3242L48.2119 13.8066H50.7715V12.8799H45.1631ZM5.74219 15.7178H9.84375V9.79883H5.74219V15.7178ZM13.3535 15.7178H17.4551V9.79883H13.3535V15.7178ZM42.3975 12.0381C41.8592 12.2301 41.4707 12.7404 41.4707 13.3438C41.4708 14.1104 42.0947 14.7344 42.8613 14.7344C43.628 14.7344 44.2518 14.1104 44.252 13.3438C44.252 12.7404 43.8634 12.2301 43.3252 12.0381V10.0684H42.3975V12.0381Z" fill="url(#paint0_linear_5098_9248)"/>
</g>
<defs>
<linearGradient id="paint0_linear_5098_9248" x1="2.41514e-07" y1="74.6667" x2="74.0543" y2="70.0766" gradientUnits="userSpaceOnUse">
<stop stop-color="#4481EB"/>
<stop offset="1" stop-color="#04BEFE"/>
</linearGradient>
<clipPath id="clip0_5098_9248">
<rect width="70" height="70" fill="white"/>
</clipPath>
</defs>
</svg>
