<svg width="70" height="70" fill="none" xmlns="http://www.w3.org/2000/svg"><path d="M20.584 67.021h-7.881a3.319 3.319 0 0 1-3.315-3.315V42.311h11.196v24.71Zm10.427 0h-8.786v-24.71h8.786v24.71Zm15.574-3.315a3.319 3.319 0 0 1-3.314 3.315H32.653v-24.71h13.932v21.395ZM17.82 34.591 4.677 42.948 2.022 38.77a3.318 3.318 0 0 1 1.019-4.575l10.344-6.578 4.435 6.974Zm16.75 2.222a1.478 1.478 0 1 1 0 2.955 1.478 1.478 0 0 1 0-2.955Zm21.651-6.839a.82.82 0 0 1 .75.956l-.393 2.288 1.662 1.62a.823.823 0 0 1-.455 1.4l-2.297.334-1.028 2.082a.82.82 0 0 1-1.47 0l-1.028-2.082-2.297-.334a.82.82 0 0 1-.455-1.4l1.663-1.62-.393-2.288a.821.821 0 0 1 1.19-.864l2.055 1.08 2.055-1.08a.823.823 0 0 1 .441-.092Zm-17.155 3.362c1.7-1.07 4.562-2.14 8.536-1.156a.821.821 0 1 1-.393 1.593c-6.46-1.598-9.43 2.889-9.552 3.08a.822.822 0 0 1-1.493-.26.822.822 0 0 1 .107-.619c.038-.06.944-1.472 2.795-2.638Zm25.52-.96a1.478 1.478 0 1 1 0 2.956 1.478 1.478 0 0 1 0-2.956ZM26.69 28.953l-7.486 4.76-4.435-6.975 3.632-2.31a.729.729 0 0 0 .058-.037l3.796-2.413 4.435 6.975Zm5.799 1.02a1.478 1.478 0 1 1 0 2.955 1.478 1.478 0 0 1 0-2.956Zm10.155-5.497c2.532-1.95 6.777-3.764 12.617-1.34a.821.821 0 0 1-.629 1.514c-4.106-1.705-7.803-1.325-10.987 1.126a13.837 13.837 0 0 0-3.614 4.248.823.823 0 0 1-1.358.179.823.823 0 0 1-.112-.909 15.383 15.383 0 0 1 4.083-4.818ZM7.086 22.93a3.053 3.053 0 0 1 2.3-.404L16.013 24l-2.664 1.694a.83.83 0 0 0-.16.077l-4.534 2.843-.597-.133a3.05 3.05 0 0 1-.973-5.55Zm28.45-8.789a3.35 3.35 0 0 1 1.91.602c.357.25.66.567.892.935l2.657 4.178-12.92 8.215-4.435-6.975 10.123-6.436a3.294 3.294 0 0 1 1.773-.519Zm26.704 4.533a.822.822 0 0 1 .69.525l.826 2.169 2.256.548a.823.823 0 0 1 .581 1.067.822.822 0 0 1-.26.368l-1.806 1.457.176 2.315a.822.822 0 0 1-1.266.75l-1.944-1.269-2.147.882a.822.822 0 0 1-.854-.143.823.823 0 0 1-.25-.83l.604-2.24-1.502-1.77a.822.822 0 0 1 .157-1.205.822.822 0 0 1 .427-.145l2.319-.116 1.217-1.977a.822.822 0 0 1 .776-.386Zm-39.622-7.863a3.052 3.052 0 0 1 4.613 3.248l-.674 3.222-4.5 2.853a.818.818 0 0 0-.138.113l-2.699 1.716 2.057-9.24a3.051 3.051 0 0 1 1.34-1.912Zm33.752 1.673a.822.822 0 0 1 .973.956c-.494 2.6-1.686 4.476-3.546 5.578-1.42.842-3.005 1.09-4.377 1.09-1.177 0-2.349-.17-3.478-.503a.82.82 0 1 1 .505-1.56c.072.022 3.803 1.175 6.521-.442 1.432-.852 2.361-2.356 2.763-4.47a.821.821 0 0 1 .639-.65Zm10.648-.64a1.478 1.478 0 1 1 0 2.956 1.478 1.478 0 0 1 0-2.956Zm-20.823-1.828a1.478 1.478 0 1 1 0 2.956 1.478 1.478 0 0 1 0-2.956ZM57.34 2.982a.822.822 0 0 1 .69.524l.827 2.17 2.256.548a.821.821 0 0 1 .321 1.436l-1.807 1.457.176 2.314a.822.822 0 0 1-1.266.75l-1.945-1.27-2.146.883a.82.82 0 0 1-1.104-.972l.606-2.241-1.503-1.77a.82.82 0 0 1 .584-1.35l2.318-.117 1.218-1.975a.821.821 0 0 1 .775-.387Z" fill="url(#a)"/><defs><linearGradient id="a" x1="1.505" y1="71.29" x2="72.35" y2="66.697" gradientUnits="userSpaceOnUse"><stop stop-color="#4481EB"/><stop offset="1" stop-color="#04BEFE"/></linearGradient></defs></svg>