<svg width="83" height="75" fill="none" xmlns="http://www.w3.org/2000/svg"><circle cx="25" cy="25" r="25" fill="#B6E0F2"/><path d="m59.947 64.823-2.623 9.058h-1.788l2.504-9.058m1.907 0H58.04m1.907 0h7.391m-9.298 0h-3.934v-4.529h6.795m-4.173 2.384h13.828M63.642 43.25v9.177m0 0h-.953m.953 0h.954m-3.695 7.866h5.483m-5.483 0-1.55-7.866h3.338m0 0c-.715-.874-2.027-3.265-2.027-5.84 0-2.574 1.987-5.283 2.98-6.316.994 1.033 2.98 3.742 2.98 6.317 0 2.574-1.31 4.965-2.026 5.84m2.742 12.394 2.622 9.058h1.788l-2.503-9.058m-1.907 0h1.907m0 0h3.934v-4.529h-6.795m0 0 1.55-7.866h-3.338M46 10v14.183m1.311 3.456H44.69m2.622 0v-2.265c0-.476-.548-1.191-1.311-1.191m1.311 3.456c2.504 0 8.225 2.86 8.225 4.886v1.788H36.464v-1.788c0-2.026 5.721-4.886 8.225-4.886M46 24.183c-.763 0-1.311.715-1.311 1.191v2.265m-3.62 31.463h6.123a4.053 4.053 0 0 1 1.662 7.75m-7.785-7.75h-1.03m1.03 0 .155-1.039a3.814 3.814 0 0 1 3.773-3.251h1.837m-6.794 4.29h-8.106m8.106 0V49.33a6.675 6.675 0 0 0-6.676-6.674H26.69a6.675 6.675 0 0 0-6.676 6.674v11.203c0 1.871.77 3.562 2.011 4.774m8.77 1.9H26.69a6.654 6.654 0 0 1-4.665-1.9m8.77 1.9h9.067m-9.067 0-2.079-12.395m2.08 12.395L31.933 74m7.927-6.793h7.331a4.04 4.04 0 0 0 1.662-.355m-8.993.355L38.848 74m15.02-19.188h-7.034m0 0 .72 4.29m1.3 7.747v.002m0 0L50.053 74m-28.028-8.693 1.08-7.244a3.814 3.814 0 0 1 3.773-3.251h1.837m-6.69 10.495L20.729 74m15.02-19.188h-7.034m48.398 7.866H82V10.119H10v52.559h4.887" stroke="#fff" stroke-width="1.2"/></svg>