<svg width="58" height="56" fill="none" xmlns="http://www.w3.org/2000/svg"><g filter="url(#a)"><path d="M66.875 28.947a12 12 0 0 1 0 14.106L52.25 63.185a12 12 0 0 1-13.416 4.359l-23.666-7.69a12 12 0 0 1-8.292-11.412V23.558a12 12 0 0 1 8.292-11.412l23.666-7.69a12 12 0 0 1 13.416 4.36l14.626 20.13Z" fill="#fff"/></g><path d="M47 34.5 37.375 25v5.429C28.164 30.429 26 37.258 26 44c2.658-3.52 5.01-5.429 11.375-5.429V44L47 34.5Z" stroke="#336B9C" stroke-linejoin="round"/><defs><filter id="a" x="4.875" y="3.868" width="64.292" height="70.264" filterUnits="userSpaceOnUse" color-interpolation-filters="sRGB"><feFlood flood-opacity="0" result="BackgroundImageFix"/><feColorMatrix in="SourceAlpha" values="0 0 0 0 0 0 0 0 0 0 0 0 0 0 0 0 0 0 127 0" result="hardAlpha"/><feOffset dx="-2" dy="6"/><feColorMatrix values="0 0 0 0 0 0 0 0 0 0 0 0 0 0 0 0 0 0 0.1 0"/><feBlend in2="BackgroundImageFix" result="effect1_dropShadow_5158_8742"/><feBlend in="SourceGraphic" in2="effect1_dropShadow_5158_8742" result="shape"/></filter></defs></svg>