<svg width="70" height="70" viewBox="0 0 70 70" fill="none" xmlns="http://www.w3.org/2000/svg">
<g clip-path="url(#clip0_5159_8778)">
<path d="M69.957 53.6406L64.002 70L59.3281 68.2988L65.2822 51.9385L69.957 53.6406ZM62.0947 53.4209L57.8418 65.1104L56.6729 64.6865C56.4081 64.5888 56.1168 64.5847 55.8496 64.6758L48.7188 67.084L23.5918 57.9385C22.4284 57.5517 21.6873 56.4119 21.8057 55.1914L21.8008 55.1904C21.9089 54.449 22.3443 53.7957 22.9873 53.4102C23.6297 53.0247 24.4113 52.9474 25.1162 53.2012L33.1846 56.1377C33.1888 56.3666 33.2068 56.5958 33.2402 56.8223C33.7219 59.5254 36.2995 61.3298 39.0039 60.8574L53.0088 58.3857L52.5762 55.9365L38.5771 58.4053C37.2287 58.6399 35.9428 57.7431 35.6963 56.3965C35.6447 56.113 35.6463 55.8223 35.7021 55.54C35.7112 55.4989 35.7188 55.4578 35.7236 55.416C35.7412 55.3104 35.7701 55.2057 35.8096 55.1055C36.1157 54.2714 36.8411 53.6618 37.7158 53.5039L54.2852 50.5781L62.0947 53.4209ZM33.1787 0C34.8284 -0.0041635 36.4115 0.651916 37.5742 1.82129L47.6914 11.9385C48.508 12.7023 48.6923 13.9278 48.1357 14.8975C47.746 15.4535 47.1359 15.8148 46.4609 15.8896C45.7858 15.9637 45.1109 15.7448 44.6094 15.2871L39.9404 10.6191C39.6557 8.1176 37.5427 6.2253 35.0254 6.21777H23.833V8.70508H35.0254C36.3987 8.70534 37.5117 9.81904 37.5117 11.1924C37.5116 12.5656 36.3986 13.6794 35.0254 13.6797H26.3203C25.6336 13.6797 25.0762 14.2361 25.0762 14.9229C25.0761 16.8058 21.9958 18.6533 18.8584 18.6533C15.7211 18.6532 12.6407 16.8057 12.6406 14.9229C12.6406 14.2362 12.0841 13.6798 11.3975 13.6797H10.1533V3.73047H11.3975C11.5656 3.73104 11.7329 3.69664 11.8877 3.62988L20.3506 0H33.1787ZM7.66602 17.4102H0.205078V0H7.66602V17.4102Z" fill="url(#paint0_linear_5159_8778)"/>
<path d="M47.9665 28.4361C48.1454 28.4361 48.3171 28.365 48.4436 28.2385C48.5701 28.1119 48.6412 27.9403 48.6412 27.7614V26.7301C48.6412 26.5512 48.5701 26.3796 48.4436 26.253C48.3171 26.1265 48.1454 26.0554 47.9665 26.0554C47.7875 26.0554 47.6159 26.1265 47.4894 26.253C47.3629 26.3796 47.2918 26.5512 47.2918 26.7301V27.7614C47.2918 27.9403 47.3629 28.1119 47.4894 28.2385C47.6159 28.365 47.7875 28.4361 47.9665 28.4361ZM49.2226 29.7673H50.254C50.4329 29.7673 50.6046 29.6962 50.7311 29.5697C50.8576 29.4432 50.9287 29.2716 50.9287 29.0926C50.9287 28.9137 50.8576 28.7421 50.7311 28.6156C50.6046 28.489 50.4329 28.4179 50.254 28.4179H49.2226C49.0437 28.4179 48.8721 28.489 48.7455 28.6156C48.619 28.7421 48.5479 28.9137 48.5479 29.0926C48.5479 29.2716 48.619 29.4432 48.7455 29.5697C48.8721 29.6962 49.0437 29.7673 49.2226 29.7673ZM47.8909 29.6744C47.712 29.6744 47.5404 29.7455 47.4138 29.872C47.2873 29.9985 47.2162 30.1701 47.2162 30.3491V31.3807C47.2162 31.5597 47.2873 31.7313 47.4138 31.8578C47.5404 31.9843 47.712 32.0554 47.8909 32.0554C48.0699 32.0554 48.2415 31.9843 48.368 31.8578C48.4946 31.7313 48.5656 31.5597 48.5656 31.3807V30.3491C48.5656 30.1701 48.4946 29.9985 48.368 29.872C48.2415 29.7455 48.0699 29.6744 47.8909 29.6744ZM45.6034 29.6921H46.6348C46.8137 29.6921 46.9854 29.621 47.1119 29.4945C47.2384 29.368 47.3095 29.1964 47.3095 29.0174C47.3095 28.8385 47.2384 28.6669 47.1119 28.5404C46.9854 28.4139 46.8137 28.3428 46.6348 28.3428H45.6034C45.4245 28.3428 45.2529 28.4139 45.1263 28.5404C44.9998 28.6669 44.9287 28.8385 44.9287 29.0174C44.9287 29.1964 44.9998 29.368 45.1263 29.4945C45.2529 29.621 45.4245 29.6921 45.6034 29.6921Z" fill="url(#paint1_linear_5159_8778)"/>
<path d="M49.3384 17.0554H26.042C25.0901 17.0565 24.1775 17.4303 23.5044 18.0948C22.8313 18.7593 22.4527 19.6602 22.4516 20.6V26.3207C22.4516 26.3113 22.4546 26.3026 22.4557 26.2933C22.186 28.6919 20.9287 29.9328 18.499 30.1994C18.3423 30.2165 18.1974 30.29 18.0921 30.4059C17.9869 30.5219 17.9287 30.6721 17.9287 30.8278C17.9287 30.9835 17.9869 31.1337 18.0921 31.2497C18.1974 31.3656 18.3423 31.4392 18.499 31.4562C20.9291 31.7228 22.186 32.9641 22.4557 35.3627C22.4557 35.3533 22.4527 35.3447 22.4516 35.3353V46.5109C22.4527 47.4506 22.8313 48.3516 23.5044 49.0161C24.1775 49.6806 25.0901 50.0544 26.042 50.0554H49.3384C50.2902 50.0544 51.2029 49.6806 51.8759 49.0161C52.549 48.3516 52.9276 47.4506 52.9287 46.5109V20.6C52.9276 19.6602 52.549 18.7593 51.8759 18.0948C51.2029 17.4303 50.2902 17.0565 49.3384 17.0554ZM23.7323 20.6C23.7329 19.9954 23.9764 19.4158 24.4095 18.9883C24.8425 18.5608 25.4296 18.3204 26.042 18.3198H49.3384C49.9507 18.3204 50.5379 18.5608 50.9709 18.9883C51.4039 19.4158 51.6474 19.9954 51.648 20.6V23.52H23.7323V20.6ZM20.9148 30.828C21.8609 30.3683 22.6264 29.6126 23.092 28.6786C23.5582 29.6132 24.3243 30.3694 25.271 30.8294C24.3246 31.2886 23.5585 32.0438 23.092 32.9774C22.626 32.0431 21.86 31.2872 20.9133 30.8276L20.9148 30.828ZM51.6491 46.5112C51.6485 47.1158 51.405 47.6954 50.972 48.1229C50.539 48.5504 49.9518 48.7908 49.3394 48.7914H26.042C25.4296 48.7908 24.8425 48.5504 24.4095 48.1229C23.9764 47.6954 23.7329 47.1158 23.7323 46.5112V35.3353C24.0093 32.9554 25.2655 31.7228 27.6842 31.4562C27.841 31.4392 27.9859 31.3656 28.0911 31.2497C28.1963 31.1337 28.2545 30.9835 28.2545 30.8278C28.2545 30.6721 28.1963 30.5219 28.0911 30.4059C27.9859 30.29 27.841 30.2165 27.6842 30.1994C25.2644 29.9339 24.0079 28.7006 23.7323 26.3207V24.7843H51.6476L51.6491 46.5112Z" fill="url(#paint2_linear_5159_8778)"/>
<path d="M37.5 47C39.3789 47 41.2156 46.4135 42.7779 45.3147C44.3402 44.2159 45.5578 42.6541 46.2769 40.8268C46.9959 38.9996 47.184 36.9889 46.8175 35.0491C46.4509 33.1093 45.5461 31.3275 44.2175 29.9289C42.8889 28.5304 41.1962 27.578 39.3534 27.1922C37.5105 26.8063 35.6004 27.0043 33.8645 27.7612C32.1286 28.5181 30.6449 29.7998 29.601 31.4443C28.5572 33.0888 28 35.0222 28 37C28.0029 39.6512 29.0047 42.193 30.7857 44.0677C32.5666 45.9424 34.9813 46.997 37.5 47ZM37.5 28.292C39.1361 28.292 40.7354 28.8026 42.0958 29.7594C43.4562 30.7162 44.5164 32.0762 45.1426 33.6673C45.7687 35.2584 45.9325 37.0092 45.6134 38.6983C45.2942 40.3874 44.5064 41.939 43.3495 43.1568C42.1927 44.3746 40.7187 45.2039 39.1141 45.5399C37.5094 45.876 35.8461 45.7036 34.3346 45.0446C32.823 44.3856 31.531 43.2695 30.622 41.8376C29.713 40.4057 29.2278 38.7222 29.2277 37C29.2301 34.6913 30.1024 32.4779 31.6532 30.8454C33.2041 29.2129 35.3068 28.2946 37.5 28.292Z" fill="url(#paint3_linear_5159_8778)"/>
<path d="M30.5876 38.6735C30.5876 38.6788 30.5876 38.6841 30.5901 38.689C30.5926 38.694 30.5947 38.7021 30.5965 38.7084C30.6409 38.8596 30.692 39.0073 30.7457 39.1546C30.7672 39.2136 30.7883 39.2726 30.8112 39.3312C30.8651 39.4676 30.923 39.6017 30.9848 39.7335C31.0141 39.7961 31.0445 39.8575 31.0756 39.9193C31.1408 40.049 31.2073 40.1772 31.28 40.3023C31.3093 40.3531 31.3415 40.4019 31.3719 40.4517C31.6538 40.9136 31.9863 41.3435 32.3635 41.7336L32.3724 41.7435C32.493 41.8671 32.6193 41.9848 32.7482 42.0999C32.7739 42.1229 32.7986 42.1462 32.8247 42.1688C32.9532 42.2804 33.0856 42.3867 33.2216 42.4895C33.2463 42.5083 33.271 42.5249 33.296 42.5443C33.4391 42.6503 33.5855 42.7516 33.7369 42.847L33.7419 42.8502C34.2093 43.1438 34.7088 43.3845 35.2308 43.5676C35.2759 43.5835 35.3203 43.603 35.3657 43.6164C35.4958 43.6586 35.627 43.6971 35.7593 43.7319C35.8495 43.7563 35.9382 43.7796 36.0306 43.8025C36.1433 43.8283 36.2567 43.8527 36.3712 43.8732C36.4979 43.8965 36.626 43.9145 36.7545 43.9311C36.8443 43.9424 36.9334 43.9562 37.0239 43.9647C37.2501 43.9855 37.478 44 37.7081 44C39.672 43.998 41.5548 43.227 42.9435 41.8562C44.3322 40.4853 45.1132 38.6266 45.1152 36.6879C45.1152 36.4668 45.1016 36.2474 45.0812 36.0287C45.0751 35.9616 45.0673 35.8952 45.0594 35.8288C45.0401 35.6689 45.0154 35.5099 44.9853 35.3519C44.9735 35.2894 44.9642 35.2265 44.9495 35.1647C44.9071 34.969 44.8565 34.7754 44.7978 34.584C44.7735 34.5045 44.7449 34.4271 44.718 34.3487C44.6468 34.1395 44.5658 33.9335 44.4754 33.7316C44.4228 33.615 44.3656 33.5009 44.3069 33.3868C44.2561 33.2868 44.2029 33.188 44.1473 33.0905C44.0757 32.9672 44.0042 32.8432 43.9261 32.7249C43.9229 32.7199 43.9176 32.7171 43.9143 32.7121C42.9532 31.241 41.4886 30.1597 39.7875 29.6654C38.0863 29.171 36.2618 29.2966 34.6466 30.0191C33.0314 30.7416 31.7329 32.013 30.9878 33.6016C30.2427 35.1902 30.1007 36.9901 30.5876 38.6735ZM37.7084 42.7601C37.5216 42.7601 37.3374 42.7485 37.1549 42.7326C37.0901 42.7266 37.0257 42.7188 36.9613 42.711C36.8469 42.6971 36.7329 42.6799 36.6196 42.6594C36.5423 42.6457 36.465 42.633 36.3884 42.616C36.2932 42.5955 36.2002 42.5694 36.1068 42.5454C35.9354 42.4991 35.7668 42.4468 35.6012 42.3867C35.5564 42.3705 35.511 42.3553 35.467 42.338C35.3515 42.293 35.2377 42.2446 35.1256 42.1928C35.0963 42.1794 35.0673 42.1653 35.0383 42.1511C34.6635 41.9717 34.3079 41.7555 33.977 41.5058L33.9501 41.486C33.8428 41.404 33.739 41.3185 33.6377 41.2299L33.5833 41.1811C33.2876 40.916 33.0186 40.6232 32.78 40.3069C32.755 40.2736 32.7288 40.2408 32.7045 40.2072C32.637 40.1136 32.5721 40.0182 32.5098 39.9211C32.4819 39.8777 32.4551 39.8332 32.4283 39.7886C32.3669 39.6892 32.3084 39.588 32.2529 39.4852C32.1835 39.3538 32.1188 39.2196 32.059 39.0825C36.9398 38.6752 39.0074 36.9737 40.8431 35.4636C41.543 34.8368 42.3158 34.2943 43.1454 33.8475C43.2468 34.0369 43.3377 34.2317 43.4177 34.431C43.4911 34.6114 43.5557 34.7952 43.6113 34.9817C43.6494 35.1098 43.6833 35.2394 43.7129 35.3703C43.7243 35.4208 43.7361 35.471 43.7462 35.5215C43.7784 35.685 43.8045 35.8504 43.8231 36.0181C43.8274 36.0574 43.8306 36.0966 43.8342 36.1358C43.8506 36.3173 43.8624 36.5003 43.8624 36.6861C43.8604 38.2966 43.2113 39.8405 42.0576 40.9792C40.9039 42.1179 39.3398 42.7583 37.7084 42.7601ZM37.7084 30.6104C38.614 30.6103 39.5083 30.8078 40.3275 31.1888C41.1467 31.5698 41.8704 32.1248 42.4469 32.8142C41.5849 33.293 40.7781 33.8629 40.0408 34.5137C38.3171 35.9323 36.3626 37.529 31.6736 37.8674C31.4954 36.9865 31.5175 36.0776 31.7384 35.2062C31.9592 34.3348 32.3732 33.5227 32.9506 32.8284C33.5279 32.1342 34.2542 31.5751 35.077 31.1915C35.8997 30.8079 36.7985 30.6094 37.7084 30.6104ZM47.8025 19C47.3679 19 46.9431 19.1272 46.5817 19.3656C46.2203 19.6039 45.9387 19.9427 45.7724 20.3391C45.606 20.7355 45.5625 21.1717 45.6473 21.5925C45.7321 22.0133 45.9414 22.3998 46.2487 22.7032C46.556 23.0065 46.9476 23.2131 47.3738 23.2968C47.8001 23.3805 48.2419 23.3376 48.6435 23.1734C49.045 23.0092 49.3882 22.7312 49.6297 22.3744C49.8711 22.0177 50 21.5983 50 21.1693C49.9993 20.5941 49.7676 20.0428 49.3556 19.6361C48.9437 19.2294 48.3851 19.0007 47.8025 19ZM47.8025 22.1018C47.6156 22.1018 47.4329 22.0471 47.2775 21.9446C47.1221 21.8421 47.001 21.6964 46.9294 21.5259C46.8579 21.3554 46.8392 21.1679 46.8757 20.9869C46.9121 20.8059 47.0021 20.6397 47.1343 20.5092C47.2665 20.3788 47.4349 20.2899 47.6182 20.2539C47.8015 20.2179 47.9915 20.2364 48.1642 20.307C48.3369 20.3776 48.4845 20.4972 48.5883 20.6506C48.6922 20.804 48.7476 20.9844 48.7476 21.1689C48.7473 21.4162 48.6476 21.6534 48.4705 21.8283C48.2933 22.0032 48.0531 22.1015 47.8025 22.1018ZM27.1978 19C26.7632 18.9999 26.3383 19.1271 25.9769 19.3654C25.6155 19.6037 25.3338 19.9425 25.1674 20.3389C25.001 20.7352 24.9574 21.1714 25.0422 21.5922C25.1269 22.0131 25.3362 22.3996 25.6435 22.703C25.9508 23.0064 26.3423 23.2131 26.7686 23.2968C27.1949 23.3805 27.6367 23.3376 28.0383 23.1734C28.4399 23.0093 28.7831 22.7312 29.0245 22.3745C29.266 22.0177 29.3949 21.5983 29.3949 21.1693C29.3942 20.5942 29.1626 20.0429 28.7507 19.6362C28.3388 19.2295 27.7803 19.0007 27.1978 19ZM27.1978 22.1018C27.0109 22.1019 26.8281 22.0472 26.6727 21.9448C26.5172 21.8423 26.396 21.6966 26.3245 21.5262C26.2529 21.3557 26.2341 21.1681 26.2705 20.9871C26.307 20.8061 26.3969 20.6399 26.5291 20.5094C26.6612 20.3789 26.8296 20.29 27.013 20.2539C27.1963 20.2179 27.3863 20.2364 27.559 20.307C27.7317 20.3776 27.8793 20.4971 27.9832 20.6506C28.0871 20.804 28.1425 20.9844 28.1425 21.1689C28.1422 21.4162 28.0426 21.6533 27.8655 21.8281C27.6884 22.003 27.4483 22.1014 27.1978 22.1018ZM32.1377 19C31.7031 19 31.2782 19.1272 30.9169 19.3656C30.5555 19.6039 30.2738 19.9427 30.1075 20.3391C29.9412 20.7355 29.8977 21.1717 29.9825 21.5925C30.0673 22.0133 30.2765 22.3998 30.5839 22.7032C30.8912 23.0065 31.2827 23.2131 31.709 23.2968C32.1353 23.3805 32.5771 23.3376 32.9786 23.1734C33.3802 23.0092 33.7234 22.7312 33.9648 22.3744C34.2063 22.0177 34.3351 21.5983 34.3351 21.1693C34.3345 20.5941 34.1028 20.0428 33.6908 19.6361C33.2788 19.2294 32.7203 19.0007 32.1377 19ZM32.1377 22.1018C31.9508 22.1018 31.7681 22.0471 31.6127 21.9446C31.4573 21.8421 31.3361 21.6964 31.2646 21.5259C31.1931 21.3554 31.1744 21.1679 31.2108 20.9869C31.2473 20.8059 31.3373 20.6397 31.4695 20.5092C31.6016 20.3788 31.77 20.2899 31.9533 20.2539C32.1366 20.2179 32.3267 20.2364 32.4993 20.307C32.672 20.3776 32.8196 20.4972 32.9235 20.6506C33.0273 20.804 33.0827 20.9844 33.0827 21.1689C33.0824 21.4162 32.9828 21.6534 32.8056 21.8283C32.6285 22.0032 32.3882 22.1015 32.1377 22.1018ZM43.2656 19.5111H39.47C39.0955 19.5111 38.7362 19.658 38.4714 19.9195C38.2065 20.181 38.0577 20.5356 38.0577 20.9054C38.0577 21.2752 38.2065 21.6298 38.4714 21.8913C38.7362 22.1527 39.0955 22.2996 39.47 22.2996H43.2656C43.6402 22.2996 43.9994 22.1527 44.2643 21.8913C44.5291 21.6298 44.6779 21.2752 44.6779 20.9054C44.6779 20.5356 44.5291 20.181 44.2643 19.9195C43.9994 19.658 43.6402 19.5111 43.2656 19.5111ZM43.2656 21.0633H39.47C39.4276 21.0633 39.3869 21.0467 39.3569 21.017C39.327 20.9874 39.3101 20.9473 39.3101 20.9054C39.3101 20.8635 39.327 20.8233 39.3569 20.7937C39.3869 20.7641 39.4276 20.7475 39.47 20.7475H43.2656C43.308 20.7475 43.3487 20.7641 43.3787 20.7937C43.4087 20.8233 43.4255 20.8635 43.4255 20.9054C43.4255 20.9473 43.4087 20.9874 43.3787 21.017C43.3487 21.0467 43.308 21.0633 43.2656 21.0633Z" fill="url(#paint4_linear_5159_8778)"/>
</g>
<defs>
<linearGradient id="paint0_linear_5159_8778" x1="0.205078" y1="74.6667" x2="73.9989" y2="70.109" gradientUnits="userSpaceOnUse">
<stop stop-color="#4481EB"/>
<stop offset="1" stop-color="#04BEFE"/>
</linearGradient>
<linearGradient id="paint1_linear_5159_8778" x1="47.9287" y1="26.0554" x2="47.9287" y2="32.0554" gradientUnits="userSpaceOnUse">
<stop stop-color="#4481EB"/>
<stop offset="1" stop-color="#04BEFE"/>
</linearGradient>
<linearGradient id="paint2_linear_5159_8778" x1="35.4287" y1="17.0554" x2="35.4287" y2="50.0554" gradientUnits="userSpaceOnUse">
<stop stop-color="#4481EB"/>
<stop offset="1" stop-color="#04BEFE"/>
</linearGradient>
<linearGradient id="paint3_linear_5159_8778" x1="37.5" y1="27" x2="37.5" y2="47" gradientUnits="userSpaceOnUse">
<stop stop-color="#4481EB"/>
<stop offset="1" stop-color="#04BEFE"/>
</linearGradient>
<linearGradient id="paint4_linear_5159_8778" x1="37.5" y1="19" x2="37.5" y2="44" gradientUnits="userSpaceOnUse">
<stop stop-color="#4481EB"/>
<stop offset="1" stop-color="#04BEFE"/>
</linearGradient>
<clipPath id="clip0_5159_8778">
<rect width="70" height="70" fill="white"/>
</clipPath>
</defs>
</svg>
