<svg width="70" height="70" viewBox="0 0 70 70" fill="none" xmlns="http://www.w3.org/2000/svg">
<path d="M20.5845 67.021H12.7026C11.824 67.02 10.9812 66.6706 10.3599 66.0493C9.73854 65.428 9.38927 64.5852 9.38818 63.7065L9.38721 42.311H20.5845V67.021ZM31.0112 67.021H22.2251V42.311H31.0112V67.021ZM46.5854 63.7065C46.5844 64.5852 46.2351 65.428 45.6138 66.0493C44.9925 66.6706 44.1496 67.0199 43.271 67.021H32.6528V42.311H46.5854V63.7065ZM17.8198 34.5913L4.67725 42.9478L2.02197 38.77C1.55136 38.028 1.39363 37.1297 1.58447 36.272C1.77542 35.4142 2.29951 34.6672 3.04053 34.1948L13.3853 27.6167L17.8198 34.5913ZM34.5708 36.813C35.3867 36.813 36.0483 37.4746 36.0483 38.2905C36.0483 39.1065 35.3867 39.7681 34.5708 39.7681C33.7551 39.7678 33.0942 39.1063 33.0942 38.2905C33.0943 37.4748 33.7551 36.8132 34.5708 36.813ZM56.2212 29.9741C56.3738 29.9852 56.5203 30.0385 56.644 30.1284C56.7678 30.2184 56.8637 30.3412 56.9214 30.4829C56.979 30.6246 56.996 30.7794 56.9702 30.9302L56.5776 33.2183L58.2397 34.8384C58.3493 34.9452 58.4267 35.0814 58.4634 35.23C58.4999 35.3784 58.4939 35.5338 58.4468 35.6792C58.3995 35.8247 58.3128 35.9546 58.1958 36.0532C58.0788 36.1519 57.9361 36.2158 57.7847 36.2378L55.4878 36.5718L54.4604 38.6538C54.3928 38.7907 54.2884 38.9061 54.1587 38.9868C54.0287 39.0677 53.8782 39.1108 53.7251 39.1108C53.5721 39.1108 53.4224 39.0676 53.2925 38.9868C53.1626 38.9061 53.0575 38.7909 52.9897 38.6538L51.9624 36.5718L49.6655 36.2378C49.514 36.2158 49.3714 36.1519 49.2544 36.0532C49.1374 35.9546 49.0507 35.8247 49.0034 35.6792C48.9562 35.5338 48.9503 35.3784 48.9868 35.23C49.0235 35.0814 49.1008 34.9452 49.2104 34.8384L50.8726 33.2183L50.48 30.9302C50.4542 30.7795 50.4713 30.6245 50.5288 30.4829C50.5865 30.3411 50.6833 30.2184 50.8071 30.1284C50.931 30.0385 51.0773 29.9851 51.23 29.9741C51.3825 29.9631 51.535 29.9948 51.6704 30.0659L53.7251 31.146L55.7798 30.0659C55.9153 29.9947 56.0685 29.9631 56.2212 29.9741ZM39.0659 33.3364C40.7664 32.2661 43.6277 31.1969 47.6021 32.1802C47.7075 32.2052 47.8074 32.2512 47.895 32.3149C47.9825 32.3785 48.0565 32.459 48.1128 32.5513C48.1692 32.6438 48.2067 32.747 48.2231 32.854C48.2396 32.961 48.2345 33.0702 48.2085 33.1753C48.1825 33.2805 48.1363 33.3802 48.0718 33.4673C48.0073 33.5543 47.9255 33.6276 47.8325 33.6831C47.7396 33.7385 47.6368 33.7751 47.5298 33.7905C47.4227 33.806 47.3133 33.7999 47.2085 33.7729C40.7484 32.175 37.7798 36.6616 37.6567 36.853C37.5402 37.0366 37.3553 37.1668 37.1431 37.2144C36.9309 37.2618 36.7085 37.2224 36.5249 37.106C36.3414 36.9895 36.2112 36.8053 36.1636 36.5933C36.116 36.381 36.1545 36.1579 36.271 35.9741C36.3089 35.9145 37.2146 34.502 39.0659 33.3364ZM64.5854 32.3765C65.4014 32.3765 66.063 33.0381 66.063 33.854C66.063 34.6699 65.4014 35.3315 64.5854 35.3315C63.7696 35.3315 63.1079 34.6699 63.1079 33.854C63.1079 33.0381 63.7696 32.3765 64.5854 32.3765ZM26.6899 28.9517L19.2036 33.7114L14.769 26.7368L18.4009 24.4272C18.4207 24.4157 18.4405 24.4037 18.4595 24.3901L22.2554 21.9771L26.6899 28.9517ZM32.4888 29.9712C33.3046 29.9712 33.9662 30.6329 33.9663 31.4487C33.9663 32.2647 33.3047 32.9263 32.4888 32.9263C31.673 32.9261 31.0122 32.2645 31.0122 31.4487C31.0123 30.633 31.6731 29.9714 32.4888 29.9712ZM42.644 24.4751C45.1763 22.5256 49.4214 20.7107 55.2612 23.1343C55.3606 23.1756 55.4508 23.2359 55.5269 23.312C55.603 23.3882 55.6634 23.4791 55.7046 23.5786C55.7456 23.678 55.7671 23.7845 55.7671 23.8921C55.767 23.9998 55.7459 24.107 55.7046 24.2065C55.6633 24.306 55.6021 24.3961 55.5259 24.4722C55.4498 24.5482 55.3596 24.6088 55.2603 24.6499C55.1607 24.6911 55.0535 24.7125 54.9458 24.7124C54.8381 24.7123 54.7318 24.6902 54.6323 24.6489C50.5261 22.9442 46.8291 23.3239 43.645 25.7749C42.1643 26.9309 40.9348 28.3763 40.0308 30.0229C39.9833 30.1202 39.9166 30.2072 39.8354 30.2788C39.7543 30.3504 39.6596 30.4051 39.5571 30.4399C39.4548 30.4748 39.3467 30.4891 39.2388 30.4819C39.1308 30.4748 39.0252 30.4461 38.9282 30.3979C38.8313 30.3498 38.7443 30.2833 38.6733 30.2017C38.6025 30.12 38.5483 30.025 38.5142 29.9224C38.4801 29.8197 38.4671 29.7109 38.4751 29.603C38.4831 29.4952 38.5123 29.3899 38.561 29.2935C39.5742 27.4222 40.9644 25.7815 42.644 24.4751ZM7.08643 22.9302C7.76899 22.4962 8.59557 22.351 9.38525 22.5259L16.0142 24.0005L13.3501 25.6938C13.2942 25.7137 13.2403 25.7396 13.1899 25.771L8.65576 28.6138L8.05908 28.481C7.26945 28.3051 6.58203 27.8228 6.14795 27.1401C5.71386 26.4574 5.56884 25.6301 5.74463 24.8403C5.92133 24.051 6.40385 23.3641 7.08643 22.9302ZM35.5356 14.1411C35.78 14.1413 36.0237 14.168 36.2622 14.2212C36.6874 14.3147 37.0904 14.4926 37.4468 14.7427C37.8028 14.9926 38.1059 15.3105 38.3384 15.6782L40.9946 19.856L28.0747 28.0708L23.6401 21.0962L33.7632 14.6597C34.2923 14.3213 34.9076 14.1415 35.5356 14.1411ZM62.2397 18.6743C62.3922 18.6887 62.5378 18.7457 62.6597 18.8384C62.7814 18.931 62.8747 19.0558 62.9292 19.1987L63.7563 21.3677L66.0122 21.9155C66.1608 21.9517 66.2966 22.0291 66.4038 22.1382C66.511 22.2474 66.5862 22.3844 66.6196 22.5337C66.653 22.6829 66.6436 22.8385 66.5933 22.9829C66.5428 23.1274 66.4526 23.255 66.3335 23.3511L64.5269 24.8081L64.7026 27.1226C64.7142 27.2752 64.6825 27.4282 64.6118 27.564C64.5411 27.6997 64.4339 27.8132 64.3022 27.8911C64.1706 27.969 64.0196 28.0087 63.8667 28.0054C63.7139 28.002 63.5651 27.956 63.437 27.8726L61.4927 26.604L59.3462 27.4858C59.2046 27.544 59.0489 27.562 58.8979 27.5366C58.7472 27.5113 58.6064 27.4443 58.4917 27.3433C58.3769 27.242 58.2926 27.11 58.2485 26.9634C58.2045 26.8168 58.2018 26.6609 58.2417 26.5132L58.8462 24.2729L57.3442 22.5034C57.2452 22.3868 57.1803 22.2446 57.1577 22.0933C57.1352 21.942 57.1557 21.7873 57.2163 21.647C57.277 21.5066 57.3758 21.3856 57.5015 21.2983C57.6272 21.2111 57.7754 21.1605 57.9282 21.1528L60.2466 21.0366L61.4644 19.0601C61.5447 18.9298 61.6604 18.8246 61.7974 18.7563C61.9342 18.6882 62.0875 18.66 62.2397 18.6743ZM22.6177 10.811C23.3004 10.377 24.1278 10.232 24.9175 10.4077C25.7083 10.5854 26.3969 11.0697 26.8306 11.7544C27.2641 12.4391 27.4083 13.2683 27.231 14.0591L26.5571 17.2808L22.0571 20.1343C22.007 20.1667 21.9604 20.2041 21.9185 20.2466L19.2202 21.9634L21.2769 12.7222C21.4527 11.9326 21.9351 11.2452 22.6177 10.811ZM56.3696 12.4839C56.475 12.462 56.5842 12.4609 56.6899 12.481C56.7958 12.5011 56.8967 12.542 56.9868 12.6011C57.0769 12.6602 57.1547 12.7366 57.2153 12.8257C57.2758 12.9146 57.3184 13.0144 57.3403 13.1196C57.3622 13.2251 57.3634 13.3341 57.3433 13.4399C56.8493 16.0393 55.6567 17.9164 53.7974 19.0181C52.3767 19.8601 50.7922 20.1079 49.4204 20.1079C48.2431 20.1073 47.0712 19.9377 45.9419 19.605C45.7352 19.5381 45.5634 19.3921 45.4644 19.1987C45.3653 19.0051 45.3468 18.7797 45.4136 18.5728C45.4804 18.3657 45.6271 18.1934 45.8208 18.0942C46.0145 17.9952 46.2398 17.9776 46.4468 18.0444C46.5192 18.0674 50.2496 19.2196 52.9683 17.603C54.4001 16.7511 55.3293 15.247 55.731 13.1333C55.7511 13.0276 55.792 12.9264 55.8511 12.8364C55.9101 12.7465 55.9867 12.6694 56.0757 12.6089C56.1646 12.5484 56.2644 12.5058 56.3696 12.4839ZM67.0181 11.8442C67.834 11.8443 68.4956 12.5059 68.4956 13.3218C68.4956 14.1377 67.834 14.7993 67.0181 14.7993C66.2021 14.7993 65.5405 14.1377 65.5405 13.3218C65.5405 12.5058 66.2021 11.8442 67.0181 11.8442ZM46.1948 10.0161C47.0107 10.0162 47.6724 10.6778 47.6724 11.4937C47.6722 12.3094 47.0106 12.9711 46.1948 12.9712C45.379 12.9712 44.7174 12.3095 44.7173 11.4937C44.7173 10.6777 45.3789 10.0161 46.1948 10.0161ZM57.3413 2.98193C57.4937 2.99631 57.6394 3.05335 57.7612 3.146C57.8829 3.23857 57.9762 3.36353 58.0308 3.50635L58.8579 5.67529L61.1138 6.22412C61.2623 6.26024 61.3982 6.33679 61.5054 6.4458C61.6126 6.55503 61.6878 6.69291 61.7212 6.84229C61.7545 6.99151 61.7453 7.14717 61.6948 7.2915C61.6443 7.43598 61.5542 7.56362 61.4351 7.65967L59.6284 9.1167L59.8042 11.4312C59.8158 11.5838 59.7841 11.7368 59.7134 11.8726C59.6427 12.0083 59.5355 12.1218 59.4038 12.1997C59.2721 12.2776 59.1212 12.3173 58.9683 12.314C58.8152 12.3106 58.6658 12.2638 58.5376 12.1802L56.5933 10.9116L54.4468 11.7944C54.3053 11.8525 54.1503 11.8695 53.9995 11.8442C53.8487 11.8189 53.708 11.752 53.5933 11.6509C53.4785 11.5497 53.3942 11.4185 53.3501 11.272C53.306 11.1255 53.3034 10.9695 53.3433 10.8218L53.9487 8.58057L52.4458 6.81104C52.3467 6.69436 52.2818 6.55227 52.2593 6.40088C52.2368 6.24958 52.2571 6.09497 52.3179 5.95459C52.3786 5.81414 52.4773 5.69317 52.603 5.60596C52.7288 5.51874 52.8769 5.4691 53.0298 5.46143L55.3481 5.34424L56.5659 3.36865C56.6462 3.23834 56.7619 3.1332 56.8989 3.06494C57.0358 2.99675 57.189 2.96764 57.3413 2.98193Z" fill="url(#paint0_linear_5098_9122)"/>
<defs>
<linearGradient id="paint0_linear_5098_9122" x1="1.50537" y1="71.2902" x2="72.3502" y2="66.6969" gradientUnits="userSpaceOnUse">
<stop stop-color="#4481EB"/>
<stop offset="1" stop-color="#04BEFE"/>
</linearGradient>
</defs>
</svg>
